<?xml version="1.0" encoding="utf-8" standalone="no"?>
<!DOCTYPE svg PUBLIC "-//W3C//DTD SVG 1.1//EN"
  "http://www.w3.org/Graphics/SVG/1.1/DTD/svg11.dtd">
<svg xmlns:xlink="http://www.w3.org/1999/xlink" width="517.284pt" height="462.892062pt" viewBox="0 0 517.284 462.892062" xmlns="http://www.w3.org/2000/svg" version="1.1">
 <metadata>
  <rdf:RDF xmlns:dc="http://purl.org/dc/elements/1.1/" xmlns:cc="http://creativecommons.org/ns#" xmlns:rdf="http://www.w3.org/1999/02/22-rdf-syntax-ns#">
   <cc:Work>
    <dc:type rdf:resource="http://purl.org/dc/dcmitype/StillImage"/>
    <dc:date>2026-08-26T10:32:55.896443</dc:date>
    <dc:format>image/svg+xml</dc:format>
    <dc:creator>
     <cc:Agent>
      <dc:title>Matplotlib v3.6.3, https://matplotlib.org/</dc:title>
     </cc:Agent>
    </dc:creator>
   </cc:Work>
  </rdf:RDF>
 </metadata>
 <defs>
  <style type="text/css">*{stroke-linejoin: round; stroke-linecap: butt}</style>
 </defs>
 <g id="figure_1">
  <g id="patch_1">
   <path d="M 0 462.892062 
L 517.284 462.892062 
L 517.284 0 
L 0 0 
z
" style="fill: #ffffff"/>
  </g>
  <g id="axes_1">
   <g id="patch_2">
    <path d="M 74.304 110.535652 
L 498.384 110.535652 
L 498.384 23.76 
L 74.304 23.76 
z
" style="fill: #ffffff"/>
   </g>
   <g id="matplotlib.axis_1">
    <g id="xtick_1">
     <g id="line2d_1">
      <defs>
       <path id="m39c3cc68db" d="M 0 0 
L 0 3.5 
" style="stroke: #333333; stroke-width: 0.8"/>
      </defs>
      <g>
       <use xlink:href="#m39c3cc68db" x="89.097488" y="110.535652" style="fill: #333333; stroke: #333333; stroke-width: 0.8"/>
      </g>
     </g>
    </g>
    <g id="xtick_2">
     <g id="line2d_2">
      <g>
       <use xlink:href="#m39c3cc68db" x="187.720744" y="110.535652" style="fill: #333333; stroke: #333333; stroke-width: 0.8"/>
      </g>
     </g>
    </g>
    <g id="xtick_3">
     <g id="line2d_3">
      <g>
       <use xlink:href="#m39c3cc68db" x="286.344" y="110.535652" style="fill: #333333; stroke: #333333; stroke-width: 0.8"/>
      </g>
     </g>
    </g>
    <g id="xtick_4">
     <g id="line2d_4">
      <g>
       <use xlink:href="#m39c3cc68db" x="384.967256" y="110.535652" style="fill: #333333; stroke: #333333; stroke-width: 0.8"/>
      </g>
     </g>
    </g>
    <g id="xtick_5">
     <g id="line2d_5">
      <g>
       <use xlink:href="#m39c3cc68db" x="483.590512" y="110.535652" style="fill: #333333; stroke: #333333; stroke-width: 0.8"/>
      </g>
     </g>
    </g>
   </g>
   <g id="matplotlib.axis_2">
    <g id="ytick_1">
     <g id="line2d_6">
      <defs>
       <path id="m60c8250c50" d="M 0 0 
L -3.5 0 
" style="stroke: #333333; stroke-width: 0.8"/>
      </defs>
      <g>
       <use xlink:href="#m60c8250c50" x="74.304" y="110.535652" style="fill: #333333; stroke: #333333; stroke-width: 0.8"/>
      </g>
     </g>
     <g id="text_1">
      <!-- 0 -->
      <g style="fill: #333333" transform="translate(60.9415 114.334871) scale(0.1 -0.1)">
       <defs>
        <path id="DejaVuSans-30" d="M 2034 4250 
Q 1547 4250 1301 3770 
Q 1056 3291 1056 2328 
Q 1056 1369 1301 889 
Q 1547 409 2034 409 
Q 2525 409 2770 889 
Q 3016 1369 3016 2328 
Q 3016 3291 2770 3770 
Q 2525 4250 2034 4250 
z
M 2034 4750 
Q 2819 4750 3233 4129 
Q 3647 3509 3647 2328 
Q 3647 1150 3233 529 
Q 2819 -91 2034 -91 
Q 1250 -91 836 529 
Q 422 1150 422 2328 
Q 422 3509 836 4129 
Q 1250 4750 2034 4750 
z
" transform="scale(0.015625)"/>
       </defs>
       <use xlink:href="#DejaVuSans-30"/>
      </g>
     </g>
    </g>
    <g id="ytick_2">
     <g id="line2d_7">
      <g>
       <use xlink:href="#m60c8250c50" x="74.304" y="49.426038" style="fill: #333333; stroke: #333333; stroke-width: 0.8"/>
      </g>
     </g>
     <g id="text_2">
      <!-- $N^2 I_1$ -->
      <g style="fill: #333333" transform="translate(46.704 53.786194) scale(0.1 -0.1)">
       <defs>
        <path id="DejaVuSans-Oblique-4e" d="M 1081 4666 
L 1931 4666 
L 3219 666 
L 4000 4666 
L 4616 4666 
L 3706 0 
L 2853 0 
L 1569 4025 
L 788 0 
L 172 0 
L 1081 4666 
z
" transform="scale(0.015625)"/>
        <path id="DejaVuSans-32" d="M 1228 531 
L 3431 531 
L 3431 0 
L 469 0 
L 469 531 
Q 828 903 1448 1529 
Q 2069 2156 2228 2338 
Q 2531 2678 2651 2914 
Q 2772 3150 2772 3378 
Q 2772 3750 2511 3984 
Q 2250 4219 1831 4219 
Q 1534 4219 1204 4116 
Q 875 4013 500 3803 
L 500 4441 
Q 881 4594 1212 4672 
Q 1544 4750 1819 4750 
Q 2544 4750 2975 4387 
Q 3406 4025 3406 3419 
Q 3406 3131 3298 2873 
Q 3191 2616 2906 2266 
Q 2828 2175 2409 1742 
Q 1991 1309 1228 531 
z
" transform="scale(0.015625)"/>
        <path id="DejaVuSans-Oblique-49" d="M 1081 4666 
L 1716 4666 
L 806 0 
L 172 0 
L 1081 4666 
z
" transform="scale(0.015625)"/>
        <path id="DejaVuSans-31" d="M 794 531 
L 1825 531 
L 1825 4091 
L 703 3866 
L 703 4441 
L 1819 4666 
L 2450 4666 
L 2450 531 
L 3481 531 
L 3481 0 
L 794 0 
L 794 531 
z
" transform="scale(0.015625)"/>
       </defs>
       <use xlink:href="#DejaVuSans-Oblique-4e" transform="translate(0 0.765625)"/>
       <use xlink:href="#DejaVuSans-32" transform="translate(81.821458 39.046875) scale(0.7)"/>
       <use xlink:href="#DejaVuSans-Oblique-49" transform="translate(129.091966 0.765625)"/>
       <use xlink:href="#DejaVuSans-31" transform="translate(158.584154 -15.640625) scale(0.7)"/>
      </g>
     </g>
    </g>
   </g>
   <g id="line2d_8">
    <path d="M 74.304 62.02118 
L 80.920971 53.478737 
L 85.841283 50.081151 
L 89.998099 49.476319 
L 94.070081 50.94652 
L 98.651061 54.91302 
L 104.33487 62.727331 
L 113.157499 78.821323 
L 125.712778 101.073318 
L 131.735918 107.815662 
L 136.401732 110.286124 
L 140.473714 110.271718 
L 144.630529 108.166813 
L 149.466008 103.263158 
L 155.743648 93.721393 
L 180.514874 52.589646 
L 185.26552 49.799071 
L 189.337503 49.587979 
L 193.409485 51.410871 
L 198.075298 55.836752 
L 204.098439 64.603221 
L 214.363228 83.837809 
L 224.628017 101.480872 
L 230.566324 107.979551 
L 235.232138 110.334913 
L 239.30412 110.216195 
L 243.460935 108.008686 
L 248.296414 103.000001 
L 254.658887 93.211381 
L 278.666617 53.008664 
L 283.502096 49.925477 
L 287.658911 49.533187 
L 291.730893 51.207844 
L 296.396707 55.481132 
L 302.250181 63.817138 
L 311.836306 81.608403 
L 322.949425 101.059421 
L 328.972566 107.807737 
L 333.638379 110.283669 
L 337.710361 110.274231 
L 341.867177 108.174221 
L 346.702656 103.275588 
L 352.980295 93.738541 
L 377.751522 52.59816 
L 382.502168 49.802068 
L 386.57415 49.586011 
L 390.646132 51.404069 
L 395.311946 55.824989 
L 401.335086 64.586631 
L 411.599875 83.81876 
L 421.864664 101.467224 
L 427.802972 107.971857 
L 432.468785 110.332709 
L 436.540767 110.218958 
L 440.697583 108.016327 
L 445.533062 103.012623 
L 451.895534 93.228687 
L 475.903264 53.017691 
L 480.738743 49.928941 
L 484.895558 49.531587 
L 488.967541 51.201389 
L 493.633354 55.469663 
L 498.384 62.02118 
L 498.384 62.02118 
" clip-path="url(#p00989fcb3f)" style="fill: none; stroke: #1769aa; stroke-width: 1.4; stroke-linecap: square"/>
   </g>
   <g id="patch_3">
    <path d="M 74.304 110.535652 
L 74.304 23.76 
" style="fill: none; stroke: #333333; stroke-width: 0.9; stroke-linejoin: miter; stroke-linecap: square"/>
   </g>
   <g id="patch_4">
    <path d="M 74.304 110.535652 
L 498.384 110.535652 
" style="fill: none; stroke: #333333; stroke-width: 0.9; stroke-linejoin: miter; stroke-linecap: square"/>
   </g>
   <g id="text_3">
    <!-- $N = 2$ -->
    <g style="fill: #1769aa" transform="translate(79.39296 41.11513) scale(0.11 -0.11)">
     <defs>
      <path id="DejaVuSans-3d" d="M 678 2906 
L 4684 2906 
L 4684 2381 
L 678 2381 
L 678 2906 
z
M 678 1631 
L 4684 1631 
L 4684 1100 
L 678 1100 
L 678 1631 
z
" transform="scale(0.015625)"/>
     </defs>
     <use xlink:href="#DejaVuSans-Oblique-4e" transform="translate(0 0.78125)"/>
     <use xlink:href="#DejaVuSans-3d" transform="translate(94.287109 0.78125)"/>
     <use xlink:href="#DejaVuSans-32" transform="translate(197.558594 0.78125)"/>
    </g>
   </g>
   <g id="text_4">
    <!-- Principal maxima stay put; they sharpen and brighten as $N$ grows -->
    <g transform="translate(64.044 17.76) scale(0.12 -0.12)">
     <defs>
      <path id="DejaVuSans-Bold-50" d="M 588 4666 
L 2584 4666 
Q 3475 4666 3951 4270 
Q 4428 3875 4428 3144 
Q 4428 2409 3951 2014 
Q 3475 1619 2584 1619 
L 1791 1619 
L 1791 0 
L 588 0 
L 588 4666 
z
M 1791 3794 
L 1791 2491 
L 2456 2491 
Q 2806 2491 2997 2661 
Q 3188 2831 3188 3144 
Q 3188 3456 2997 3625 
Q 2806 3794 2456 3794 
L 1791 3794 
z
" transform="scale(0.015625)"/>
      <path id="DejaVuSans-Bold-72" d="M 3138 2547 
Q 2991 2616 2845 2648 
Q 2700 2681 2553 2681 
Q 2122 2681 1889 2404 
Q 1656 2128 1656 1613 
L 1656 0 
L 538 0 
L 538 3500 
L 1656 3500 
L 1656 2925 
Q 1872 3269 2151 3426 
Q 2431 3584 2822 3584 
Q 2878 3584 2943 3579 
Q 3009 3575 3134 3559 
L 3138 2547 
z
" transform="scale(0.015625)"/>
      <path id="DejaVuSans-Bold-69" d="M 538 3500 
L 1656 3500 
L 1656 0 
L 538 0 
L 538 3500 
z
M 538 4863 
L 1656 4863 
L 1656 3950 
L 538 3950 
L 538 4863 
z
" transform="scale(0.015625)"/>
      <path id="DejaVuSans-Bold-6e" d="M 4056 2131 
L 4056 0 
L 2931 0 
L 2931 347 
L 2931 1631 
Q 2931 2084 2911 2256 
Q 2891 2428 2841 2509 
Q 2775 2619 2662 2680 
Q 2550 2741 2406 2741 
Q 2056 2741 1856 2470 
Q 1656 2200 1656 1722 
L 1656 0 
L 538 0 
L 538 3500 
L 1656 3500 
L 1656 2988 
Q 1909 3294 2193 3439 
Q 2478 3584 2822 3584 
Q 3428 3584 3742 3212 
Q 4056 2841 4056 2131 
z
" transform="scale(0.015625)"/>
      <path id="DejaVuSans-Bold-63" d="M 3366 3391 
L 3366 2478 
Q 3138 2634 2908 2709 
Q 2678 2784 2431 2784 
Q 1963 2784 1702 2511 
Q 1441 2238 1441 1747 
Q 1441 1256 1702 982 
Q 1963 709 2431 709 
Q 2694 709 2930 787 
Q 3166 866 3366 1019 
L 3366 103 
Q 3103 6 2833 -42 
Q 2563 -91 2291 -91 
Q 1344 -91 809 395 
Q 275 881 275 1747 
Q 275 2613 809 3098 
Q 1344 3584 2291 3584 
Q 2566 3584 2833 3536 
Q 3100 3488 3366 3391 
z
" transform="scale(0.015625)"/>
      <path id="DejaVuSans-Bold-70" d="M 1656 506 
L 1656 -1331 
L 538 -1331 
L 538 3500 
L 1656 3500 
L 1656 2988 
Q 1888 3294 2169 3439 
Q 2450 3584 2816 3584 
Q 3463 3584 3878 3070 
Q 4294 2556 4294 1747 
Q 4294 938 3878 423 
Q 3463 -91 2816 -91 
Q 2450 -91 2169 54 
Q 1888 200 1656 506 
z
M 2400 2772 
Q 2041 2772 1848 2508 
Q 1656 2244 1656 1747 
Q 1656 1250 1848 986 
Q 2041 722 2400 722 
Q 2759 722 2948 984 
Q 3138 1247 3138 1747 
Q 3138 2247 2948 2509 
Q 2759 2772 2400 2772 
z
" transform="scale(0.015625)"/>
      <path id="DejaVuSans-Bold-61" d="M 2106 1575 
Q 1756 1575 1579 1456 
Q 1403 1338 1403 1106 
Q 1403 894 1545 773 
Q 1688 653 1941 653 
Q 2256 653 2472 879 
Q 2688 1106 2688 1447 
L 2688 1575 
L 2106 1575 
z
M 3816 1997 
L 3816 0 
L 2688 0 
L 2688 519 
Q 2463 200 2181 54 
Q 1900 -91 1497 -91 
Q 953 -91 614 226 
Q 275 544 275 1050 
Q 275 1666 698 1953 
Q 1122 2241 2028 2241 
L 2688 2241 
L 2688 2328 
Q 2688 2594 2478 2717 
Q 2269 2841 1825 2841 
Q 1466 2841 1156 2769 
Q 847 2697 581 2553 
L 581 3406 
Q 941 3494 1303 3539 
Q 1666 3584 2028 3584 
Q 2975 3584 3395 3211 
Q 3816 2838 3816 1997 
z
" transform="scale(0.015625)"/>
      <path id="DejaVuSans-Bold-6c" d="M 538 4863 
L 1656 4863 
L 1656 0 
L 538 0 
L 538 4863 
z
" transform="scale(0.015625)"/>
      <path id="DejaVuSans-Bold-20" transform="scale(0.015625)"/>
      <path id="DejaVuSans-Bold-6d" d="M 3781 2919 
Q 3994 3244 4286 3414 
Q 4578 3584 4928 3584 
Q 5531 3584 5847 3212 
Q 6163 2841 6163 2131 
L 6163 0 
L 5038 0 
L 5038 1825 
Q 5041 1866 5042 1909 
Q 5044 1953 5044 2034 
Q 5044 2406 4934 2573 
Q 4825 2741 4581 2741 
Q 4263 2741 4089 2478 
Q 3916 2216 3909 1719 
L 3909 0 
L 2784 0 
L 2784 1825 
Q 2784 2406 2684 2573 
Q 2584 2741 2328 2741 
Q 2006 2741 1831 2477 
Q 1656 2213 1656 1722 
L 1656 0 
L 531 0 
L 531 3500 
L 1656 3500 
L 1656 2988 
Q 1863 3284 2130 3434 
Q 2397 3584 2719 3584 
Q 3081 3584 3359 3409 
Q 3638 3234 3781 2919 
z
" transform="scale(0.015625)"/>
      <path id="DejaVuSans-Bold-78" d="M 1422 1791 
L 159 3500 
L 1344 3500 
L 2059 2463 
L 2784 3500 
L 3969 3500 
L 2706 1797 
L 4031 0 
L 2847 0 
L 2059 1106 
L 1281 0 
L 97 0 
L 1422 1791 
z
" transform="scale(0.015625)"/>
      <path id="DejaVuSans-Bold-73" d="M 3272 3391 
L 3272 2541 
Q 2913 2691 2578 2766 
Q 2244 2841 1947 2841 
Q 1628 2841 1473 2761 
Q 1319 2681 1319 2516 
Q 1319 2381 1436 2309 
Q 1553 2238 1856 2203 
L 2053 2175 
Q 2913 2066 3209 1816 
Q 3506 1566 3506 1031 
Q 3506 472 3093 190 
Q 2681 -91 1863 -91 
Q 1516 -91 1145 -36 
Q 775 19 384 128 
L 384 978 
Q 719 816 1070 734 
Q 1422 653 1784 653 
Q 2113 653 2278 743 
Q 2444 834 2444 1013 
Q 2444 1163 2330 1236 
Q 2216 1309 1875 1350 
L 1678 1375 
Q 931 1469 631 1722 
Q 331 1975 331 2491 
Q 331 3047 712 3315 
Q 1094 3584 1881 3584 
Q 2191 3584 2531 3537 
Q 2872 3491 3272 3391 
z
" transform="scale(0.015625)"/>
      <path id="DejaVuSans-Bold-74" d="M 1759 4494 
L 1759 3500 
L 2913 3500 
L 2913 2700 
L 1759 2700 
L 1759 1216 
Q 1759 972 1856 886 
Q 1953 800 2241 800 
L 2816 800 
L 2816 0 
L 1856 0 
Q 1194 0 917 276 
Q 641 553 641 1216 
L 641 2700 
L 84 2700 
L 84 3500 
L 641 3500 
L 641 4494 
L 1759 4494 
z
" transform="scale(0.015625)"/>
      <path id="DejaVuSans-Bold-79" d="M 78 3500 
L 1197 3500 
L 2138 1125 
L 2938 3500 
L 4056 3500 
L 2584 -331 
Q 2363 -916 2067 -1148 
Q 1772 -1381 1288 -1381 
L 641 -1381 
L 641 -647 
L 991 -647 
Q 1275 -647 1404 -556 
Q 1534 -466 1606 -231 
L 1638 -134 
L 78 3500 
z
" transform="scale(0.015625)"/>
      <path id="DejaVuSans-Bold-75" d="M 500 1363 
L 500 3500 
L 1625 3500 
L 1625 3150 
Q 1625 2866 1622 2436 
Q 1619 2006 1619 1863 
Q 1619 1441 1641 1255 
Q 1663 1069 1716 984 
Q 1784 875 1895 815 
Q 2006 756 2150 756 
Q 2500 756 2700 1025 
Q 2900 1294 2900 1772 
L 2900 3500 
L 4019 3500 
L 4019 0 
L 2900 0 
L 2900 506 
Q 2647 200 2364 54 
Q 2081 -91 1741 -91 
Q 1134 -91 817 281 
Q 500 653 500 1363 
z
" transform="scale(0.015625)"/>
      <path id="DejaVuSans-Bold-3b" d="M 716 1209 
L 1844 1209 
L 1844 256 
L 1069 -909 
L 403 -909 
L 716 256 
L 716 1209 
z
M 716 3500 
L 1844 3500 
L 1844 2291 
L 716 2291 
L 716 3500 
z
" transform="scale(0.015625)"/>
      <path id="DejaVuSans-Bold-68" d="M 4056 2131 
L 4056 0 
L 2931 0 
L 2931 347 
L 2931 1625 
Q 2931 2084 2911 2256 
Q 2891 2428 2841 2509 
Q 2775 2619 2662 2680 
Q 2550 2741 2406 2741 
Q 2056 2741 1856 2470 
Q 1656 2200 1656 1722 
L 1656 0 
L 538 0 
L 538 4863 
L 1656 4863 
L 1656 2988 
Q 1909 3294 2193 3439 
Q 2478 3584 2822 3584 
Q 3428 3584 3742 3212 
Q 4056 2841 4056 2131 
z
" transform="scale(0.015625)"/>
      <path id="DejaVuSans-Bold-65" d="M 4031 1759 
L 4031 1441 
L 1416 1441 
Q 1456 1047 1700 850 
Q 1944 653 2381 653 
Q 2734 653 3104 758 
Q 3475 863 3866 1075 
L 3866 213 
Q 3469 63 3072 -14 
Q 2675 -91 2278 -91 
Q 1328 -91 801 392 
Q 275 875 275 1747 
Q 275 2603 792 3093 
Q 1309 3584 2216 3584 
Q 3041 3584 3536 3087 
Q 4031 2591 4031 1759 
z
M 2881 2131 
Q 2881 2450 2695 2645 
Q 2509 2841 2209 2841 
Q 1884 2841 1681 2658 
Q 1478 2475 1428 2131 
L 2881 2131 
z
" transform="scale(0.015625)"/>
      <path id="DejaVuSans-Bold-64" d="M 2919 2988 
L 2919 4863 
L 4044 4863 
L 4044 0 
L 2919 0 
L 2919 506 
Q 2688 197 2409 53 
Q 2131 -91 1766 -91 
Q 1119 -91 703 423 
Q 288 938 288 1747 
Q 288 2556 703 3070 
Q 1119 3584 1766 3584 
Q 2128 3584 2408 3439 
Q 2688 3294 2919 2988 
z
M 2181 722 
Q 2541 722 2730 984 
Q 2919 1247 2919 1747 
Q 2919 2247 2730 2509 
Q 2541 2772 2181 2772 
Q 1825 2772 1636 2509 
Q 1447 2247 1447 1747 
Q 1447 1247 1636 984 
Q 1825 722 2181 722 
z
" transform="scale(0.015625)"/>
      <path id="DejaVuSans-Bold-62" d="M 2400 722 
Q 2759 722 2948 984 
Q 3138 1247 3138 1747 
Q 3138 2247 2948 2509 
Q 2759 2772 2400 2772 
Q 2041 2772 1848 2508 
Q 1656 2244 1656 1747 
Q 1656 1250 1848 986 
Q 2041 722 2400 722 
z
M 1656 2988 
Q 1888 3294 2169 3439 
Q 2450 3584 2816 3584 
Q 3463 3584 3878 3070 
Q 4294 2556 4294 1747 
Q 4294 938 3878 423 
Q 3463 -91 2816 -91 
Q 2450 -91 2169 54 
Q 1888 200 1656 506 
L 1656 0 
L 538 0 
L 538 4863 
L 1656 4863 
L 1656 2988 
z
" transform="scale(0.015625)"/>
      <path id="DejaVuSans-Bold-67" d="M 2919 594 
Q 2688 288 2409 144 
Q 2131 0 1766 0 
Q 1125 0 706 504 
Q 288 1009 288 1791 
Q 288 2575 706 3076 
Q 1125 3578 1766 3578 
Q 2131 3578 2409 3434 
Q 2688 3291 2919 2981 
L 2919 3500 
L 4044 3500 
L 4044 353 
Q 4044 -491 3511 -936 
Q 2978 -1381 1966 -1381 
Q 1638 -1381 1331 -1331 
Q 1025 -1281 716 -1178 
L 716 -306 
Q 1009 -475 1290 -558 
Q 1572 -641 1856 -641 
Q 2406 -641 2662 -400 
Q 2919 -159 2919 353 
L 2919 594 
z
M 2181 2772 
Q 1834 2772 1640 2515 
Q 1447 2259 1447 1791 
Q 1447 1309 1634 1061 
Q 1822 813 2181 813 
Q 2531 813 2725 1069 
Q 2919 1325 2919 1791 
Q 2919 2259 2725 2515 
Q 2531 2772 2181 2772 
z
" transform="scale(0.015625)"/>
      <path id="DejaVuSans-Bold-6f" d="M 2203 2784 
Q 1831 2784 1636 2517 
Q 1441 2250 1441 1747 
Q 1441 1244 1636 976 
Q 1831 709 2203 709 
Q 2569 709 2762 976 
Q 2956 1244 2956 1747 
Q 2956 2250 2762 2517 
Q 2569 2784 2203 2784 
z
M 2203 3584 
Q 3106 3584 3614 3096 
Q 4122 2609 4122 1747 
Q 4122 884 3614 396 
Q 3106 -91 2203 -91 
Q 1297 -91 786 396 
Q 275 884 275 1747 
Q 275 2609 786 3096 
Q 1297 3584 2203 3584 
z
" transform="scale(0.015625)"/>
      <path id="DejaVuSans-Bold-77" d="M 225 3500 
L 1313 3500 
L 1900 1088 
L 2491 3500 
L 3425 3500 
L 4013 1113 
L 4603 3500 
L 5691 3500 
L 4769 0 
L 3547 0 
L 2956 2406 
L 2369 0 
L 1147 0 
L 225 3500 
z
" transform="scale(0.015625)"/>
     </defs>
     <use xlink:href="#DejaVuSans-Bold-50" transform="translate(0 0.015625)"/>
     <use xlink:href="#DejaVuSans-Bold-72" transform="translate(73.291016 0.015625)"/>
     <use xlink:href="#DejaVuSans-Bold-69" transform="translate(122.607422 0.015625)"/>
     <use xlink:href="#DejaVuSans-Bold-6e" transform="translate(156.884766 0.015625)"/>
     <use xlink:href="#DejaVuSans-Bold-63" transform="translate(228.076172 0.015625)"/>
     <use xlink:href="#DejaVuSans-Bold-69" transform="translate(287.353516 0.015625)"/>
     <use xlink:href="#DejaVuSans-Bold-70" transform="translate(321.630859 0.015625)"/>
     <use xlink:href="#DejaVuSans-Bold-61" transform="translate(393.212891 0.015625)"/>
     <use xlink:href="#DejaVuSans-Bold-6c" transform="translate(460.693359 0.015625)"/>
     <use xlink:href="#DejaVuSans-Bold-20" transform="translate(494.970703 0.015625)"/>
     <use xlink:href="#DejaVuSans-Bold-6d" transform="translate(529.785156 0.015625)"/>
     <use xlink:href="#DejaVuSans-Bold-61" transform="translate(633.984375 0.015625)"/>
     <use xlink:href="#DejaVuSans-Bold-78" transform="translate(701.464844 0.015625)"/>
     <use xlink:href="#DejaVuSans-Bold-69" transform="translate(765.966797 0.015625)"/>
     <use xlink:href="#DejaVuSans-Bold-6d" transform="translate(800.244141 0.015625)"/>
     <use xlink:href="#DejaVuSans-Bold-61" transform="translate(904.443359 0.015625)"/>
     <use xlink:href="#DejaVuSans-Bold-20" transform="translate(971.923828 0.015625)"/>
     <use xlink:href="#DejaVuSans-Bold-73" transform="translate(1006.738281 0.015625)"/>
     <use xlink:href="#DejaVuSans-Bold-74" transform="translate(1066.259766 0.015625)"/>
     <use xlink:href="#DejaVuSans-Bold-61" transform="translate(1114.0625 0.015625)"/>
     <use xlink:href="#DejaVuSans-Bold-79" transform="translate(1181.542969 0.015625)"/>
     <use xlink:href="#DejaVuSans-Bold-20" transform="translate(1246.728516 0.015625)"/>
     <use xlink:href="#DejaVuSans-Bold-70" transform="translate(1281.542969 0.015625)"/>
     <use xlink:href="#DejaVuSans-Bold-75" transform="translate(1353.125 0.015625)"/>
     <use xlink:href="#DejaVuSans-Bold-74" transform="translate(1424.316406 0.015625)"/>
     <use xlink:href="#DejaVuSans-Bold-3b" transform="translate(1472.119141 0.015625)"/>
     <use xlink:href="#DejaVuSans-Bold-20" transform="translate(1512.109375 0.015625)"/>
     <use xlink:href="#DejaVuSans-Bold-74" transform="translate(1546.923828 0.015625)"/>
     <use xlink:href="#DejaVuSans-Bold-68" transform="translate(1594.726562 0.015625)"/>
     <use xlink:href="#DejaVuSans-Bold-65" transform="translate(1665.917969 0.015625)"/>
     <use xlink:href="#DejaVuSans-Bold-79" transform="translate(1733.740234 0.015625)"/>
     <use xlink:href="#DejaVuSans-Bold-20" transform="translate(1798.925781 0.015625)"/>
     <use xlink:href="#DejaVuSans-Bold-73" transform="translate(1833.740234 0.015625)"/>
     <use xlink:href="#DejaVuSans-Bold-68" transform="translate(1893.261719 0.015625)"/>
     <use xlink:href="#DejaVuSans-Bold-61" transform="translate(1964.453125 0.015625)"/>
     <use xlink:href="#DejaVuSans-Bold-72" transform="translate(2031.933594 0.015625)"/>
     <use xlink:href="#DejaVuSans-Bold-70" transform="translate(2081.25 0.015625)"/>
     <use xlink:href="#DejaVuSans-Bold-65" transform="translate(2152.832031 0.015625)"/>
     <use xlink:href="#DejaVuSans-Bold-6e" transform="translate(2220.654297 0.015625)"/>
     <use xlink:href="#DejaVuSans-Bold-20" transform="translate(2291.845703 0.015625)"/>
     <use xlink:href="#DejaVuSans-Bold-61" transform="translate(2326.660156 0.015625)"/>
     <use xlink:href="#DejaVuSans-Bold-6e" transform="translate(2394.140625 0.015625)"/>
     <use xlink:href="#DejaVuSans-Bold-64" transform="translate(2465.332031 0.015625)"/>
     <use xlink:href="#DejaVuSans-Bold-20" transform="translate(2536.914062 0.015625)"/>
     <use xlink:href="#DejaVuSans-Bold-62" transform="translate(2571.728516 0.015625)"/>
     <use xlink:href="#DejaVuSans-Bold-72" transform="translate(2643.310547 0.015625)"/>
     <use xlink:href="#DejaVuSans-Bold-69" transform="translate(2692.626953 0.015625)"/>
     <use xlink:href="#DejaVuSans-Bold-67" transform="translate(2726.904297 0.015625)"/>
     <use xlink:href="#DejaVuSans-Bold-68" transform="translate(2798.486328 0.015625)"/>
     <use xlink:href="#DejaVuSans-Bold-74" transform="translate(2869.677734 0.015625)"/>
     <use xlink:href="#DejaVuSans-Bold-65" transform="translate(2917.480469 0.015625)"/>
     <use xlink:href="#DejaVuSans-Bold-6e" transform="translate(2985.302734 0.015625)"/>
     <use xlink:href="#DejaVuSans-Bold-20" transform="translate(3056.494141 0.015625)"/>
     <use xlink:href="#DejaVuSans-Bold-61" transform="translate(3091.308594 0.015625)"/>
     <use xlink:href="#DejaVuSans-Bold-73" transform="translate(3158.789062 0.015625)"/>
     <use xlink:href="#DejaVuSans-Bold-20" transform="translate(3218.310547 0.015625)"/>
     <use xlink:href="#DejaVuSans-Oblique-4e" transform="translate(3253.125 0.015625)"/>
     <use xlink:href="#DejaVuSans-Bold-20" transform="translate(3327.929688 0.015625)"/>
     <use xlink:href="#DejaVuSans-Bold-67" transform="translate(3362.744141 0.015625)"/>
     <use xlink:href="#DejaVuSans-Bold-72" transform="translate(3434.326172 0.015625)"/>
     <use xlink:href="#DejaVuSans-Bold-6f" transform="translate(3483.642578 0.015625)"/>
     <use xlink:href="#DejaVuSans-Bold-77" transform="translate(3552.34375 0.015625)"/>
     <use xlink:href="#DejaVuSans-Bold-73" transform="translate(3644.726562 0.015625)"/>
    </g>
   </g>
  </g>
  <g id="axes_2">
   <g id="patch_5">
    <path d="M 74.304 214.666435 
L 498.384 214.666435 
L 498.384 127.890783 
L 74.304 127.890783 
z
" style="fill: #ffffff"/>
   </g>
   <g id="matplotlib.axis_3">
    <g id="xtick_6">
     <g id="line2d_9">
      <g>
       <use xlink:href="#m39c3cc68db" x="89.097488" y="214.666435" style="fill: #333333; stroke: #333333; stroke-width: 0.8"/>
      </g>
     </g>
    </g>
    <g id="xtick_7">
     <g id="line2d_10">
      <g>
       <use xlink:href="#m39c3cc68db" x="187.720744" y="214.666435" style="fill: #333333; stroke: #333333; stroke-width: 0.8"/>
      </g>
     </g>
    </g>
    <g id="xtick_8">
     <g id="line2d_11">
      <g>
       <use xlink:href="#m39c3cc68db" x="286.344" y="214.666435" style="fill: #333333; stroke: #333333; stroke-width: 0.8"/>
      </g>
     </g>
    </g>
    <g id="xtick_9">
     <g id="line2d_12">
      <g>
       <use xlink:href="#m39c3cc68db" x="384.967256" y="214.666435" style="fill: #333333; stroke: #333333; stroke-width: 0.8"/>
      </g>
     </g>
    </g>
    <g id="xtick_10">
     <g id="line2d_13">
      <g>
       <use xlink:href="#m39c3cc68db" x="483.590512" y="214.666435" style="fill: #333333; stroke: #333333; stroke-width: 0.8"/>
      </g>
     </g>
    </g>
   </g>
   <g id="matplotlib.axis_4">
    <g id="ytick_3">
     <g id="line2d_14">
      <g>
       <use xlink:href="#m60c8250c50" x="74.304" y="214.666435" style="fill: #333333; stroke: #333333; stroke-width: 0.8"/>
      </g>
     </g>
     <g id="text_5">
      <!-- 0 -->
      <g style="fill: #333333" transform="translate(60.9415 218.465654) scale(0.1 -0.1)">
       <use xlink:href="#DejaVuSans-30"/>
      </g>
     </g>
    </g>
    <g id="ytick_4">
     <g id="line2d_15">
      <g>
       <use xlink:href="#m60c8250c50" x="74.304" y="153.556821" style="fill: #333333; stroke: #333333; stroke-width: 0.8"/>
      </g>
     </g>
     <g id="text_6">
      <!-- $N^2 I_1$ -->
      <g style="fill: #333333" transform="translate(46.704 157.916977) scale(0.1 -0.1)">
       <use xlink:href="#DejaVuSans-Oblique-4e" transform="translate(0 0.765625)"/>
       <use xlink:href="#DejaVuSans-32" transform="translate(81.821458 39.046875) scale(0.7)"/>
       <use xlink:href="#DejaVuSans-Oblique-49" transform="translate(129.091966 0.765625)"/>
       <use xlink:href="#DejaVuSans-31" transform="translate(158.584154 -15.640625) scale(0.7)"/>
      </g>
     </g>
    </g>
   </g>
   <g id="line2d_16">
    <path d="M 74.304 182.528841 
L 82.787297 159.880208 
L 86.689613 154.509907 
L 89.489101 153.582176 
L 91.949257 154.890538 
L 95.003244 159.123478 
L 99.329725 169.122839 
L 115.617655 210.713468 
L 119.435138 214.088528 
L 122.828457 214.607731 
L 126.985272 213.014282 
L 137.928725 207.889191 
L 142.255206 208.663511 
L 148.532846 212.236428 
L 154.301487 214.642391 
L 157.694806 213.931391 
L 160.918459 211.074263 
L 164.735942 204.683891 
L 169.910753 191.556046 
L 182.635698 157.721781 
L 186.198683 153.938996 
L 188.828505 153.759482 
L 191.373494 155.73342 
L 194.68198 161.185097 
L 199.602292 173.781441 
L 212.242404 207.642366 
L 216.484052 213.085137 
L 219.962204 214.632554 
L 223.610021 214.004414 
L 229.972494 210.309038 
L 235.825968 207.956422 
L 240.15245 208.400755 
L 245.58176 211.237888 
L 252.707729 214.619819 
L 256.101047 214.042905 
L 259.3247 211.339487 
L 263.057351 205.304253 
L 268.062496 192.909268 
L 281.63577 157.140783 
L 285.029089 153.842218 
L 287.574078 153.806635 
L 290.2039 155.983457 
L 293.597219 161.803602 
L 298.687197 175.136837 
L 310.478979 206.945537 
L 314.80546 212.831636 
L 318.368445 214.604881 
L 321.931429 214.122694 
L 327.700071 210.861682 
L 334.062544 208.015525 
L 338.389025 208.281042 
L 343.563836 210.831935 
L 351.453302 214.633428 
L 354.846621 213.981249 
L 358.070273 211.191313 
L 361.802924 205.055124 
L 366.892902 192.317549 
L 380.126845 157.339994 
L 383.604996 153.863102 
L 386.149985 153.7878 
L 388.779807 155.925161 
L 392.173126 161.701947 
L 397.263104 174.997007 
L 409.139719 207.01451 
L 413.4662 212.86421 
L 417.029185 214.610262 
L 420.59217 214.108537 
L 426.360811 210.838128 
L 432.723284 208.009096 
L 437.049765 208.292009 
L 442.224576 210.855481 
L 450.029209 214.62843 
L 453.422528 214.005482 
L 456.64618 211.249074 
L 460.378831 205.151928 
L 465.468809 192.453195 
L 478.787585 157.282994 
L 482.265736 153.846508 
L 484.810725 153.802651 
L 487.440547 155.971256 
L 490.833866 161.782381 
L 495.923844 175.107691 
L 498.384 182.528841 
L 498.384 182.528841 
" clip-path="url(#p033afccec5)" style="fill: none; stroke: #2e7d5b; stroke-width: 1.4; stroke-linecap: square"/>
   </g>
   <g id="patch_6">
    <path d="M 74.304 214.666435 
L 74.304 127.890783 
" style="fill: none; stroke: #333333; stroke-width: 0.9; stroke-linejoin: miter; stroke-linecap: square"/>
   </g>
   <g id="patch_7">
    <path d="M 74.304 214.666435 
L 498.384 214.666435 
" style="fill: none; stroke: #333333; stroke-width: 0.9; stroke-linejoin: miter; stroke-linecap: square"/>
   </g>
   <g id="text_7">
    <!-- $N = 3$ -->
    <g style="fill: #2e7d5b" transform="translate(79.39296 145.245913) scale(0.11 -0.11)">
     <defs>
      <path id="DejaVuSans-33" d="M 2597 2516 
Q 3050 2419 3304 2112 
Q 3559 1806 3559 1356 
Q 3559 666 3084 287 
Q 2609 -91 1734 -91 
Q 1441 -91 1130 -33 
Q 819 25 488 141 
L 488 750 
Q 750 597 1062 519 
Q 1375 441 1716 441 
Q 2309 441 2620 675 
Q 2931 909 2931 1356 
Q 2931 1769 2642 2001 
Q 2353 2234 1838 2234 
L 1294 2234 
L 1294 2753 
L 1863 2753 
Q 2328 2753 2575 2939 
Q 2822 3125 2822 3475 
Q 2822 3834 2567 4026 
Q 2313 4219 1838 4219 
Q 1578 4219 1281 4162 
Q 984 4106 628 3988 
L 628 4550 
Q 988 4650 1302 4700 
Q 1616 4750 1894 4750 
Q 2613 4750 3031 4423 
Q 3450 4097 3450 3541 
Q 3450 3153 3228 2886 
Q 3006 2619 2597 2516 
z
" transform="scale(0.015625)"/>
     </defs>
     <use xlink:href="#DejaVuSans-Oblique-4e" transform="translate(0 0.78125)"/>
     <use xlink:href="#DejaVuSans-3d" transform="translate(94.287109 0.78125)"/>
     <use xlink:href="#DejaVuSans-33" transform="translate(197.558594 0.78125)"/>
    </g>
   </g>
   <g id="patch_8">
    <path d="M 256.478294 184.111628 
Q 286.343368 184.111628 316.208442 184.111628 
" style="fill: none; stroke: #555555; stroke-width: 0.9; stroke-linecap: round"/>
    <path d="M 260.878294 186.311628 
L 256.478294 184.111628 
L 260.878294 181.911628 
" style="fill: none; stroke: #555555; stroke-width: 0.9; stroke-linecap: round"/>
    <path d="M 311.808442 181.911628 
L 316.208442 184.111628 
L 311.808442 186.311628 
" style="fill: none; stroke: #555555; stroke-width: 0.9; stroke-linecap: round"/>
   </g>
   <g id="text_8">
    <!-- width $\propto 1/N$ -->
    <g style="fill: #555555" transform="translate(259.794 179.222859) scale(0.09 -0.09)">
     <defs>
      <path id="DejaVuSans-77" d="M 269 3500 
L 844 3500 
L 1563 769 
L 2278 3500 
L 2956 3500 
L 3675 769 
L 4391 3500 
L 4966 3500 
L 4050 0 
L 3372 0 
L 2619 2869 
L 1863 0 
L 1184 0 
L 269 3500 
z
" transform="scale(0.015625)"/>
      <path id="DejaVuSans-69" d="M 603 3500 
L 1178 3500 
L 1178 0 
L 603 0 
L 603 3500 
z
M 603 4863 
L 1178 4863 
L 1178 4134 
L 603 4134 
L 603 4863 
z
" transform="scale(0.015625)"/>
      <path id="DejaVuSans-64" d="M 2906 2969 
L 2906 4863 
L 3481 4863 
L 3481 0 
L 2906 0 
L 2906 525 
Q 2725 213 2448 61 
Q 2172 -91 1784 -91 
Q 1150 -91 751 415 
Q 353 922 353 1747 
Q 353 2572 751 3078 
Q 1150 3584 1784 3584 
Q 2172 3584 2448 3432 
Q 2725 3281 2906 2969 
z
M 947 1747 
Q 947 1113 1208 752 
Q 1469 391 1925 391 
Q 2381 391 2643 752 
Q 2906 1113 2906 1747 
Q 2906 2381 2643 2742 
Q 2381 3103 1925 3103 
Q 1469 3103 1208 2742 
Q 947 2381 947 1747 
z
" transform="scale(0.015625)"/>
      <path id="DejaVuSans-74" d="M 1172 4494 
L 1172 3500 
L 2356 3500 
L 2356 3053 
L 1172 3053 
L 1172 1153 
Q 1172 725 1289 603 
Q 1406 481 1766 481 
L 2356 481 
L 2356 0 
L 1766 0 
Q 1100 0 847 248 
Q 594 497 594 1153 
L 594 3053 
L 172 3053 
L 172 3500 
L 594 3500 
L 594 4494 
L 1172 4494 
z
" transform="scale(0.015625)"/>
      <path id="DejaVuSans-68" d="M 3513 2113 
L 3513 0 
L 2938 0 
L 2938 2094 
Q 2938 2591 2744 2837 
Q 2550 3084 2163 3084 
Q 1697 3084 1428 2787 
Q 1159 2491 1159 1978 
L 1159 0 
L 581 0 
L 581 4863 
L 1159 4863 
L 1159 2956 
Q 1366 3272 1645 3428 
Q 1925 3584 2291 3584 
Q 2894 3584 3203 3211 
Q 3513 2838 3513 2113 
z
" transform="scale(0.015625)"/>
      <path id="DejaVuSans-20" transform="scale(0.015625)"/>
      <path id="DejaVuSans-221d" d="M 1647 1134 
Q 2163 1134 2472 1884 
Q 2075 2703 1647 2703 
Q 1334 2703 1175 2478 
Q 1006 2238 1006 1919 
Q 1006 1569 1175 1353 
Q 1350 1134 1647 1134 
z
M 3884 1128 
L 3884 716 
L 3644 716 
Q 3416 716 3247 809 
Q 3078 894 2916 1091 
Q 2819 1203 2666 1466 
Q 2456 1091 2272 925 
Q 2044 725 1681 725 
Q 1259 725 981 1041 
Q 688 1372 688 1919 
Q 688 2444 981 2800 
Q 1241 3116 1688 3116 
Q 1916 3116 2084 3022 
Q 2281 2919 2416 2741 
Q 2541 2581 2666 2366 
Q 2875 2741 3059 2906 
Q 3288 3106 3650 3106 
L 3884 3106 
L 3884 2697 
L 3684 2697 
Q 3222 2697 2859 1947 
Q 3256 1128 3684 1128 
L 3884 1128 
z
" transform="scale(0.015625)"/>
      <path id="DejaVuSans-2f" d="M 1625 4666 
L 2156 4666 
L 531 -594 
L 0 -594 
L 1625 4666 
z
" transform="scale(0.015625)"/>
     </defs>
     <use xlink:href="#DejaVuSans-77" transform="translate(0 0.015625)"/>
     <use xlink:href="#DejaVuSans-69" transform="translate(81.787109 0.015625)"/>
     <use xlink:href="#DejaVuSans-64" transform="translate(109.570312 0.015625)"/>
     <use xlink:href="#DejaVuSans-74" transform="translate(173.046875 0.015625)"/>
     <use xlink:href="#DejaVuSans-68" transform="translate(212.255859 0.015625)"/>
     <use xlink:href="#DejaVuSans-20" transform="translate(275.634766 0.015625)"/>
     <use xlink:href="#DejaVuSans-221d" transform="translate(326.904297 0.015625)"/>
     <use xlink:href="#DejaVuSans-31" transform="translate(417.822266 0.015625)"/>
     <use xlink:href="#DejaVuSans-2f" transform="translate(481.445312 0.015625)"/>
     <use xlink:href="#DejaVuSans-Oblique-4e" transform="translate(515.136719 0.015625)"/>
    </g>
   </g>
  </g>
  <g id="axes_3">
   <g id="patch_9">
    <path d="M 74.304 318.797217 
L 498.384 318.797217 
L 498.384 232.021565 
L 74.304 232.021565 
z
" style="fill: #ffffff"/>
   </g>
   <g id="matplotlib.axis_5">
    <g id="xtick_11">
     <g id="line2d_17">
      <g>
       <use xlink:href="#m39c3cc68db" x="89.097488" y="318.797217" style="fill: #333333; stroke: #333333; stroke-width: 0.8"/>
      </g>
     </g>
    </g>
    <g id="xtick_12">
     <g id="line2d_18">
      <g>
       <use xlink:href="#m39c3cc68db" x="187.720744" y="318.797217" style="fill: #333333; stroke: #333333; stroke-width: 0.8"/>
      </g>
     </g>
    </g>
    <g id="xtick_13">
     <g id="line2d_19">
      <g>
       <use xlink:href="#m39c3cc68db" x="286.344" y="318.797217" style="fill: #333333; stroke: #333333; stroke-width: 0.8"/>
      </g>
     </g>
    </g>
    <g id="xtick_14">
     <g id="line2d_20">
      <g>
       <use xlink:href="#m39c3cc68db" x="384.967256" y="318.797217" style="fill: #333333; stroke: #333333; stroke-width: 0.8"/>
      </g>
     </g>
    </g>
    <g id="xtick_15">
     <g id="line2d_21">
      <g>
       <use xlink:href="#m39c3cc68db" x="483.590512" y="318.797217" style="fill: #333333; stroke: #333333; stroke-width: 0.8"/>
      </g>
     </g>
    </g>
   </g>
   <g id="matplotlib.axis_6">
    <g id="ytick_5">
     <g id="line2d_22">
      <g>
       <use xlink:href="#m60c8250c50" x="74.304" y="318.797217" style="fill: #333333; stroke: #333333; stroke-width: 0.8"/>
      </g>
     </g>
     <g id="text_9">
      <!-- 0 -->
      <g style="fill: #333333" transform="translate(60.9415 322.596436) scale(0.1 -0.1)">
       <use xlink:href="#DejaVuSans-30"/>
      </g>
     </g>
    </g>
    <g id="ytick_6">
     <g id="line2d_23">
      <g>
       <use xlink:href="#m60c8250c50" x="74.304" y="257.687603" style="fill: #333333; stroke: #333333; stroke-width: 0.8"/>
      </g>
     </g>
     <g id="text_10">
      <!-- $N^2 I_1$ -->
      <g style="fill: #333333" transform="translate(46.704 262.047759) scale(0.1 -0.1)">
       <use xlink:href="#DejaVuSans-Oblique-4e" transform="translate(0 0.765625)"/>
       <use xlink:href="#DejaVuSans-32" transform="translate(81.821458 39.046875) scale(0.7)"/>
       <use xlink:href="#DejaVuSans-Oblique-49" transform="translate(129.091966 0.765625)"/>
       <use xlink:href="#DejaVuSans-31" transform="translate(158.584154 -15.640625) scale(0.7)"/>
      </g>
     </g>
    </g>
   </g>
   <g id="line2d_24">
    <path d="M 74.304 312.867336 
L 77.44282 301.697448 
L 88.301439 258.001325 
L 89.913266 258.017035 
L 91.609925 260.756756 
L 94.239747 269.749218 
L 106.286028 317.403869 
L 108.746184 318.796175 
L 111.460839 317.844766 
L 117.992978 314.984789 
L 121.640795 316.176677 
L 128.681932 318.795969 
L 133.093246 317.693067 
L 139.201219 316.39 
L 144.206364 317.876922 
L 149.296342 318.724226 
L 153.453158 317.121275 
L 159.391465 314.985869 
L 162.784784 316.181667 
L 168.807925 318.670656 
L 170.843916 317.007379 
L 173.219239 312.072768 
L 176.442892 300.009436 
L 186.538015 258.378447 
L 188.319507 257.865249 
L 189.846501 259.897285 
L 192.221824 267.111687 
L 196.802804 289.224894 
L 202.232114 312.100477 
L 205.370933 317.891872 
L 207.746256 318.781402 
L 210.71541 317.443792 
L 216.229553 314.97906 
L 219.707705 315.895287 
L 227.85167 318.765919 
L 232.771982 317.288239 
L 237.946793 316.402285 
L 243.121604 317.985575 
L 247.957083 318.718774 
L 252.198731 317.05402 
L 257.967373 314.983486 
L 261.360691 316.153449 
L 267.468665 318.65829 
L 269.504656 316.955964 
L 271.879979 311.966926 
L 275.103632 299.838225 
L 285.113922 258.434597 
L 286.895414 257.838291 
L 288.422408 259.801282 
L 290.797731 266.926869 
L 295.293878 288.542876 
L 300.892854 312.205218 
L 304.031674 317.926451 
L 306.406997 318.777284 
L 309.37615 317.419183 
L 314.890293 314.9784 
L 318.453278 315.955263 
L 326.342744 318.776801 
L 331.09339 317.402474 
L 336.5227 316.397326 
L 341.612678 317.936741 
L 346.53299 318.725629 
L 350.689805 317.126682 
L 356.628113 314.985337 
L 360.021431 316.17577 
L 366.044572 318.673809 
L 368.080563 317.020775 
L 370.455886 312.100477 
L 373.679539 300.054395 
L 383.774662 258.389967 
L 385.556154 257.859451 
L 387.083148 259.877116 
L 389.458471 267.073064 
L 394.039451 289.17406 
L 399.468761 312.072768 
L 402.607581 317.882649 
L 404.982904 318.782409 
L 407.952058 317.450257 
L 413.4662 314.979277 
L 416.944352 315.890502 
L 425.088317 318.766809 
L 429.923796 317.323827 
L 435.18344 316.401231 
L 440.358251 317.981953 
L 445.19373 318.720228 
L 449.350545 317.106119 
L 455.20402 314.983042 
L 458.597339 316.147598 
L 464.705312 318.661603 
L 466.741303 316.969572 
L 469.116627 311.994864 
L 472.340279 299.883336 
L 482.350569 258.446567 
L 484.132062 257.832952 
L 485.659055 259.781539 
L 487.949545 266.561595 
L 492.276026 287.174467 
L 498.044668 311.938928 
L 498.384 312.867336 
L 498.384 312.867336 
" clip-path="url(#pdaf4f10e2c)" style="fill: none; stroke: #6a4c93; stroke-width: 1.4; stroke-linecap: square"/>
   </g>
   <g id="patch_10">
    <path d="M 74.304 318.797217 
L 74.304 232.021565 
" style="fill: none; stroke: #333333; stroke-width: 0.9; stroke-linejoin: miter; stroke-linecap: square"/>
   </g>
   <g id="patch_11">
    <path d="M 74.304 318.797217 
L 498.384 318.797217 
" style="fill: none; stroke: #333333; stroke-width: 0.9; stroke-linejoin: miter; stroke-linecap: square"/>
   </g>
   <g id="text_11">
    <!-- $N = 5$ -->
    <g style="fill: #6a4c93" transform="translate(79.39296 249.376696) scale(0.11 -0.11)">
     <defs>
      <path id="DejaVuSans-35" d="M 691 4666 
L 3169 4666 
L 3169 4134 
L 1269 4134 
L 1269 2991 
Q 1406 3038 1543 3061 
Q 1681 3084 1819 3084 
Q 2600 3084 3056 2656 
Q 3513 2228 3513 1497 
Q 3513 744 3044 326 
Q 2575 -91 1722 -91 
Q 1428 -91 1123 -41 
Q 819 9 494 109 
L 494 744 
Q 775 591 1075 516 
Q 1375 441 1709 441 
Q 2250 441 2565 725 
Q 2881 1009 2881 1497 
Q 2881 1984 2565 2268 
Q 2250 2553 1709 2553 
Q 1456 2553 1204 2497 
Q 953 2441 691 2322 
L 691 4666 
z
" transform="scale(0.015625)"/>
     </defs>
     <use xlink:href="#DejaVuSans-Oblique-4e" transform="translate(0 0.09375)"/>
     <use xlink:href="#DejaVuSans-3d" transform="translate(94.287109 0.09375)"/>
     <use xlink:href="#DejaVuSans-35" transform="translate(197.558594 0.09375)"/>
    </g>
   </g>
   <g id="patch_12">
    <path d="M 269.624049 288.24241 
Q 286.344332 288.24241 303.064616 288.24241 
" style="fill: none; stroke: #555555; stroke-width: 0.9; stroke-linecap: round"/>
    <path d="M 274.024049 290.44241 
L 269.624049 288.24241 
L 274.024049 286.04241 
" style="fill: none; stroke: #555555; stroke-width: 0.9; stroke-linecap: round"/>
    <path d="M 298.664616 286.04241 
L 303.064616 288.24241 
L 298.664616 290.44241 
" style="fill: none; stroke: #555555; stroke-width: 0.9; stroke-linecap: round"/>
   </g>
   <g id="text_12">
    <!-- width $\propto 1/N$ -->
    <g style="fill: #555555" transform="translate(259.794 283.353641) scale(0.09 -0.09)">
     <use xlink:href="#DejaVuSans-77" transform="translate(0 0.015625)"/>
     <use xlink:href="#DejaVuSans-69" transform="translate(81.787109 0.015625)"/>
     <use xlink:href="#DejaVuSans-64" transform="translate(109.570312 0.015625)"/>
     <use xlink:href="#DejaVuSans-74" transform="translate(173.046875 0.015625)"/>
     <use xlink:href="#DejaVuSans-68" transform="translate(212.255859 0.015625)"/>
     <use xlink:href="#DejaVuSans-20" transform="translate(275.634766 0.015625)"/>
     <use xlink:href="#DejaVuSans-221d" transform="translate(326.904297 0.015625)"/>
     <use xlink:href="#DejaVuSans-31" transform="translate(417.822266 0.015625)"/>
     <use xlink:href="#DejaVuSans-2f" transform="translate(481.445312 0.015625)"/>
     <use xlink:href="#DejaVuSans-Oblique-4e" transform="translate(515.136719 0.015625)"/>
    </g>
   </g>
  </g>
  <g id="axes_4">
   <g id="patch_13">
    <path d="M 74.304 422.928 
L 498.384 422.928 
L 498.384 336.152348 
L 74.304 336.152348 
z
" style="fill: #ffffff"/>
   </g>
   <g id="matplotlib.axis_7">
    <g id="xtick_16">
     <g id="line2d_25">
      <g>
       <use xlink:href="#m39c3cc68db" x="89.097488" y="422.928" style="fill: #333333; stroke: #333333; stroke-width: 0.8"/>
      </g>
     </g>
     <g id="text_13">
      <!-- −2 -->
      <g style="fill: #333333" transform="translate(81.726395 437.526437) scale(0.1 -0.1)">
       <defs>
        <path id="DejaVuSans-2212" d="M 678 2272 
L 4684 2272 
L 4684 1741 
L 678 1741 
L 678 2272 
z
" transform="scale(0.015625)"/>
       </defs>
       <use xlink:href="#DejaVuSans-2212"/>
       <use xlink:href="#DejaVuSans-32" x="83.789062"/>
      </g>
     </g>
    </g>
    <g id="xtick_17">
     <g id="line2d_26">
      <g>
       <use xlink:href="#m39c3cc68db" x="187.720744" y="422.928" style="fill: #333333; stroke: #333333; stroke-width: 0.8"/>
      </g>
     </g>
     <g id="text_14">
      <!-- −1 -->
      <g style="fill: #333333" transform="translate(180.34965 437.526437) scale(0.1 -0.1)">
       <use xlink:href="#DejaVuSans-2212"/>
       <use xlink:href="#DejaVuSans-31" x="83.789062"/>
      </g>
     </g>
    </g>
    <g id="xtick_18">
     <g id="line2d_27">
      <g>
       <use xlink:href="#m39c3cc68db" x="286.344" y="422.928" style="fill: #333333; stroke: #333333; stroke-width: 0.8"/>
      </g>
     </g>
     <g id="text_15">
      <!-- 0 -->
      <g style="fill: #333333" transform="translate(283.16275 437.526437) scale(0.1 -0.1)">
       <use xlink:href="#DejaVuSans-30"/>
      </g>
     </g>
    </g>
    <g id="xtick_19">
     <g id="line2d_28">
      <g>
       <use xlink:href="#m39c3cc68db" x="384.967256" y="422.928" style="fill: #333333; stroke: #333333; stroke-width: 0.8"/>
      </g>
     </g>
     <g id="text_16">
      <!-- 1 -->
      <g style="fill: #333333" transform="translate(381.786006 437.526437) scale(0.1 -0.1)">
       <use xlink:href="#DejaVuSans-31"/>
      </g>
     </g>
    </g>
    <g id="xtick_20">
     <g id="line2d_29">
      <g>
       <use xlink:href="#m39c3cc68db" x="483.590512" y="422.928" style="fill: #333333; stroke: #333333; stroke-width: 0.8"/>
      </g>
     </g>
     <g id="text_17">
      <!-- 2 -->
      <g style="fill: #333333" transform="translate(480.409262 437.526437) scale(0.1 -0.1)">
       <use xlink:href="#DejaVuSans-32"/>
      </g>
     </g>
    </g>
    <g id="text_18">
     <!-- $d\sin\theta/\lambda$ -->
     <g transform="translate(265.554 451.964406) scale(0.11 -0.11)">
      <defs>
       <path id="DejaVuSans-Oblique-64" d="M 2675 525 
Q 2444 222 2128 65 
Q 1813 -91 1428 -91 
Q 903 -91 598 267 
Q 294 625 294 1247 
Q 294 1766 478 2236 
Q 663 2706 1013 3078 
Q 1244 3325 1534 3454 
Q 1825 3584 2144 3584 
Q 2481 3584 2739 3421 
Q 2997 3259 3138 2956 
L 3513 4863 
L 4091 4863 
L 3144 0 
L 2566 0 
L 2675 525 
z
M 891 1350 
Q 891 897 1095 644 
Q 1300 391 1663 391 
Q 1931 391 2161 520 
Q 2391 650 2566 903 
Q 2750 1166 2856 1509 
Q 2963 1853 2963 2188 
Q 2963 2622 2758 2865 
Q 2553 3109 2194 3109 
Q 1922 3109 1687 2981 
Q 1453 2853 1288 2613 
Q 1106 2353 998 2009 
Q 891 1666 891 1350 
z
" transform="scale(0.015625)"/>
       <path id="DejaVuSans-73" d="M 2834 3397 
L 2834 2853 
Q 2591 2978 2328 3040 
Q 2066 3103 1784 3103 
Q 1356 3103 1142 2972 
Q 928 2841 928 2578 
Q 928 2378 1081 2264 
Q 1234 2150 1697 2047 
L 1894 2003 
Q 2506 1872 2764 1633 
Q 3022 1394 3022 966 
Q 3022 478 2636 193 
Q 2250 -91 1575 -91 
Q 1294 -91 989 -36 
Q 684 19 347 128 
L 347 722 
Q 666 556 975 473 
Q 1284 391 1588 391 
Q 1994 391 2212 530 
Q 2431 669 2431 922 
Q 2431 1156 2273 1281 
Q 2116 1406 1581 1522 
L 1381 1569 
Q 847 1681 609 1914 
Q 372 2147 372 2553 
Q 372 3047 722 3315 
Q 1072 3584 1716 3584 
Q 2034 3584 2315 3537 
Q 2597 3491 2834 3397 
z
" transform="scale(0.015625)"/>
       <path id="DejaVuSans-6e" d="M 3513 2113 
L 3513 0 
L 2938 0 
L 2938 2094 
Q 2938 2591 2744 2837 
Q 2550 3084 2163 3084 
Q 1697 3084 1428 2787 
Q 1159 2491 1159 1978 
L 1159 0 
L 581 0 
L 581 3500 
L 1159 3500 
L 1159 2956 
Q 1366 3272 1645 3428 
Q 1925 3584 2291 3584 
Q 2894 3584 3203 3211 
Q 3513 2838 3513 2113 
z
" transform="scale(0.015625)"/>
       <path id="DejaVuSans-Oblique-3b8" d="M 2913 2219 
L 925 2219 
Q 791 1284 928 888 
Q 1100 400 1566 400 
Q 2034 400 2391 891 
Q 2703 1322 2913 2219 
z
M 3009 2750 
Q 3094 3638 2984 3950 
Q 2813 4444 2353 4444 
Q 1875 4444 1525 3956 
Q 1250 3563 1034 2750 
L 3009 2750 
z
M 2444 4913 
Q 3194 4913 3494 4250 
Q 3794 3591 3566 2422 
Q 3341 1256 2781 594 
Q 2225 -72 1475 -72 
Q 722 -72 425 594 
Q 128 1256 353 2422 
Q 581 3591 1134 4250 
Q 1691 4913 2444 4913 
z
" transform="scale(0.015625)"/>
       <path id="DejaVuSans-Oblique-3bb" d="M 2350 4316 
L 3125 0 
L 2516 0 
L 2038 2588 
L 328 0 
L -281 0 
L 1903 3356 
L 1794 3975 
Q 1725 4369 1391 4369 
L 1091 4369 
L 1184 4863 
L 1550 4856 
Q 2253 4847 2350 4316 
z
" transform="scale(0.015625)"/>
      </defs>
      <use xlink:href="#DejaVuSans-Oblique-64" transform="translate(0 0.234375)"/>
      <use xlink:href="#DejaVuSans-73" transform="translate(63.476562 0.234375)"/>
      <use xlink:href="#DejaVuSans-69" transform="translate(115.576172 0.234375)"/>
      <use xlink:href="#DejaVuSans-6e" transform="translate(143.359375 0.234375)"/>
      <use xlink:href="#DejaVuSans-Oblique-3b8" transform="translate(222.973958 0.234375)"/>
      <use xlink:href="#DejaVuSans-2f" transform="translate(284.155598 0.234375)"/>
      <use xlink:href="#DejaVuSans-Oblique-3bb" transform="translate(317.847004 0.234375)"/>
     </g>
    </g>
   </g>
   <g id="matplotlib.axis_8">
    <g id="ytick_7">
     <g id="line2d_30">
      <g>
       <use xlink:href="#m60c8250c50" x="74.304" y="422.928" style="fill: #333333; stroke: #333333; stroke-width: 0.8"/>
      </g>
     </g>
     <g id="text_19">
      <!-- 0 -->
      <g style="fill: #333333" transform="translate(60.9415 426.727219) scale(0.1 -0.1)">
       <use xlink:href="#DejaVuSans-30"/>
      </g>
     </g>
    </g>
    <g id="ytick_8">
     <g id="line2d_31">
      <g>
       <use xlink:href="#m60c8250c50" x="74.304" y="361.818386" style="fill: #333333; stroke: #333333; stroke-width: 0.8"/>
      </g>
     </g>
     <g id="text_20">
      <!-- $N^2 I_1$ -->
      <g style="fill: #333333" transform="translate(46.704 366.178542) scale(0.1 -0.1)">
       <use xlink:href="#DejaVuSans-Oblique-4e" transform="translate(0 0.765625)"/>
       <use xlink:href="#DejaVuSans-32" transform="translate(81.821458 39.046875) scale(0.7)"/>
       <use xlink:href="#DejaVuSans-Oblique-49" transform="translate(129.091966 0.765625)"/>
       <use xlink:href="#DejaVuSans-31" transform="translate(158.584154 -15.640625) scale(0.7)"/>
      </g>
     </g>
    </g>
   </g>
   <g id="line2d_32">
    <path d="M 74.304 422.928 
L 80.496807 421.846112 
L 82.278299 420.064425 
L 82.532798 420.28924 
L 84.31429 422.869242 
L 84.738455 421.914576 
L 85.671618 414.297082 
L 89.064936 361.827124 
L 90.082932 369.41938 
L 94.070081 422.923723 
L 94.579079 422.330635 
L 96.360571 420.043461 
L 96.699903 420.316836 
L 99.838723 422.545149 
L 102.04438 422.117455 
L 105.013534 422.64936 
L 107.643356 422.698718 
L 110.527677 422.627307 
L 116.296318 422.665532 
L 145.054694 422.802064 
L 156.931309 422.821641 
L 164.142112 422.796287 
L 168.298927 422.911301 
L 177.291221 422.748485 
L 178.648549 422.490268 
L 181.023872 420.153416 
L 181.448037 420.721279 
L 182.890197 422.901314 
L 183.314362 422.087549 
L 184.247525 414.889004 
L 186.368349 375.490682 
L 187.725676 361.818586 
L 188.065008 362.789591 
L 188.998171 374.146297 
L 192.645988 422.927911 
L 193.409485 421.914782 
L 195.021311 420.062456 
L 195.27581 420.266008 
L 198.584296 422.457116 
L 200.70512 422.138257 
L 203.589441 422.667205 
L 206.304096 422.711198 
L 209.188417 422.620782 
L 215.126725 422.676267 
L 228.954498 422.793524 
L 241.170445 422.891576 
L 252.962228 422.840254 
L 260.682028 422.82531 
L 267.0445 422.895124 
L 275.442964 422.42987 
L 277.224456 422.541212 
L 279.684612 420.187826 
L 280.108777 420.788105 
L 281.550937 422.877005 
L 281.890269 422.242566 
L 282.738599 416.42378 
L 284.520091 384.777939 
L 286.386416 361.833222 
L 286.556082 362.188434 
L 287.319579 369.275713 
L 291.306729 422.925507 
L 291.815726 422.348946 
L 293.597219 420.038967 
L 293.936551 420.305945 
L 297.07537 422.552138 
L 299.281027 422.112071 
L 302.250181 422.653077 
L 304.880003 422.695411 
L 307.764324 422.629072 
L 313.448133 422.663568 
L 362.142256 422.635746 
L 368.674394 422.514074 
L 371.473882 422.450416 
L 373.679539 422.161137 
L 375.885196 422.501121 
L 378.260519 420.144912 
L 378.684684 420.704071 
L 380.126845 422.906372 
L 380.551009 422.121308 
L 381.484172 415.009537 
L 383.520163 377.252091 
L 384.962324 361.818586 
L 385.216823 362.330324 
L 386.065152 371.135211 
L 389.882636 422.927365 
L 390.221968 422.697436 
L 392.342792 420.109308 
L 392.766957 420.564448 
L 395.396779 422.748485 
L 398.111433 422.231998 
L 400.741255 422.702706 
L 403.540743 422.707927 
L 406.425064 422.62247 
L 412.278539 422.670292 
L 430.856959 422.824029 
L 442.309409 422.789972 
L 455.288853 422.795507 
L 462.245156 422.643111 
L 466.06264 422.399483 
L 472.594778 422.361201 
L 474.461103 422.551455 
L 476.921259 420.17845 
L 477.345424 420.770304 
L 478.787585 422.884193 
L 479.126917 422.272649 
L 479.975246 416.531325 
L 481.671906 386.75065 
L 483.623064 361.827124 
L 483.79273 362.154886 
L 484.556226 369.133191 
L 488.543376 422.926817 
L 489.052374 422.367082 
L 490.918699 420.078363 
L 491.173198 420.295212 
L 494.396851 422.498541 
L 496.517675 422.106725 
L 498.384 422.928 
L 498.384 422.928 
" clip-path="url(#p1e729aa0c3)" style="fill: none; stroke: #b33a3a; stroke-width: 1.4; stroke-linecap: square"/>
   </g>
   <g id="patch_14">
    <path d="M 74.304 422.928 
L 74.304 336.152348 
" style="fill: none; stroke: #333333; stroke-width: 0.9; stroke-linejoin: miter; stroke-linecap: square"/>
   </g>
   <g id="patch_15">
    <path d="M 74.304 422.928 
L 498.384 422.928 
" style="fill: none; stroke: #333333; stroke-width: 0.9; stroke-linejoin: miter; stroke-linecap: square"/>
   </g>
   <g id="text_21">
    <!-- $N = 20$ -->
    <g style="fill: #b33a3a" transform="translate(79.39296 353.507478) scale(0.11 -0.11)">
     <use xlink:href="#DejaVuSans-Oblique-4e" transform="translate(0 0.78125)"/>
     <use xlink:href="#DejaVuSans-3d" transform="translate(94.287109 0.78125)"/>
     <use xlink:href="#DejaVuSans-32" transform="translate(197.558594 0.78125)"/>
     <use xlink:href="#DejaVuSans-30" transform="translate(261.181641 0.78125)"/>
    </g>
   </g>
   <g id="patch_16">
    <path d="M 284.417537 392.373193 
Q 286.342974 392.373193 288.26841 392.373193 
" style="fill: none; stroke: #555555; stroke-width: 0.9; stroke-linecap: round"/>
    <path d="M 288.817537 394.573193 
L 284.417537 392.373193 
L 288.817537 390.173193 
" style="fill: none; stroke: #555555; stroke-width: 0.9; stroke-linecap: round"/>
    <path d="M 283.86841 390.173193 
L 288.26841 392.373193 
L 283.86841 394.573193 
" style="fill: none; stroke: #555555; stroke-width: 0.9; stroke-linecap: round"/>
   </g>
   <g id="patch_17">
    <path d="M 326.74334 357.314568 
Q 309.72039 374.140953 292.69744 390.967339 
" style="fill: none; stroke: #555555; stroke-width: 0.8; stroke-linecap: round"/>
   </g>
   <g id="text_22">
    <!-- width $\propto 1/N$ -->
    <g style="fill: #555555" transform="translate(308.041116 352.040848) scale(0.09 -0.09)">
     <use xlink:href="#DejaVuSans-77" transform="translate(0 0.015625)"/>
     <use xlink:href="#DejaVuSans-69" transform="translate(81.787109 0.015625)"/>
     <use xlink:href="#DejaVuSans-64" transform="translate(109.570312 0.015625)"/>
     <use xlink:href="#DejaVuSans-74" transform="translate(173.046875 0.015625)"/>
     <use xlink:href="#DejaVuSans-68" transform="translate(212.255859 0.015625)"/>
     <use xlink:href="#DejaVuSans-20" transform="translate(275.634766 0.015625)"/>
     <use xlink:href="#DejaVuSans-221d" transform="translate(326.904297 0.015625)"/>
     <use xlink:href="#DejaVuSans-31" transform="translate(417.822266 0.015625)"/>
     <use xlink:href="#DejaVuSans-2f" transform="translate(481.445312 0.015625)"/>
     <use xlink:href="#DejaVuSans-Oblique-4e" transform="translate(515.136719 0.015625)"/>
    </g>
   </g>
  </g>
  <g id="text_23">
   <!-- intensity (each panel scaled to its own peak) -->
   <g transform="translate(16.238438 332.943406) rotate(-90) scale(0.1 -0.1)">
    <defs>
     <path id="DejaVuSans-65" d="M 3597 1894 
L 3597 1613 
L 953 1613 
Q 991 1019 1311 708 
Q 1631 397 2203 397 
Q 2534 397 2845 478 
Q 3156 559 3463 722 
L 3463 178 
Q 3153 47 2828 -22 
Q 2503 -91 2169 -91 
Q 1331 -91 842 396 
Q 353 884 353 1716 
Q 353 2575 817 3079 
Q 1281 3584 2069 3584 
Q 2775 3584 3186 3129 
Q 3597 2675 3597 1894 
z
M 3022 2063 
Q 3016 2534 2758 2815 
Q 2500 3097 2075 3097 
Q 1594 3097 1305 2825 
Q 1016 2553 972 2059 
L 3022 2063 
z
" transform="scale(0.015625)"/>
     <path id="DejaVuSans-79" d="M 2059 -325 
Q 1816 -950 1584 -1140 
Q 1353 -1331 966 -1331 
L 506 -1331 
L 506 -850 
L 844 -850 
Q 1081 -850 1212 -737 
Q 1344 -625 1503 -206 
L 1606 56 
L 191 3500 
L 800 3500 
L 1894 763 
L 2988 3500 
L 3597 3500 
L 2059 -325 
z
" transform="scale(0.015625)"/>
     <path id="DejaVuSans-28" d="M 1984 4856 
Q 1566 4138 1362 3434 
Q 1159 2731 1159 2009 
Q 1159 1288 1364 580 
Q 1569 -128 1984 -844 
L 1484 -844 
Q 1016 -109 783 600 
Q 550 1309 550 2009 
Q 550 2706 781 3412 
Q 1013 4119 1484 4856 
L 1984 4856 
z
" transform="scale(0.015625)"/>
     <path id="DejaVuSans-61" d="M 2194 1759 
Q 1497 1759 1228 1600 
Q 959 1441 959 1056 
Q 959 750 1161 570 
Q 1363 391 1709 391 
Q 2188 391 2477 730 
Q 2766 1069 2766 1631 
L 2766 1759 
L 2194 1759 
z
M 3341 1997 
L 3341 0 
L 2766 0 
L 2766 531 
Q 2569 213 2275 61 
Q 1981 -91 1556 -91 
Q 1019 -91 701 211 
Q 384 513 384 1019 
Q 384 1609 779 1909 
Q 1175 2209 1959 2209 
L 2766 2209 
L 2766 2266 
Q 2766 2663 2505 2880 
Q 2244 3097 1772 3097 
Q 1472 3097 1187 3025 
Q 903 2953 641 2809 
L 641 3341 
Q 956 3463 1253 3523 
Q 1550 3584 1831 3584 
Q 2591 3584 2966 3190 
Q 3341 2797 3341 1997 
z
" transform="scale(0.015625)"/>
     <path id="DejaVuSans-63" d="M 3122 3366 
L 3122 2828 
Q 2878 2963 2633 3030 
Q 2388 3097 2138 3097 
Q 1578 3097 1268 2742 
Q 959 2388 959 1747 
Q 959 1106 1268 751 
Q 1578 397 2138 397 
Q 2388 397 2633 464 
Q 2878 531 3122 666 
L 3122 134 
Q 2881 22 2623 -34 
Q 2366 -91 2075 -91 
Q 1284 -91 818 406 
Q 353 903 353 1747 
Q 353 2603 823 3093 
Q 1294 3584 2113 3584 
Q 2378 3584 2631 3529 
Q 2884 3475 3122 3366 
z
" transform="scale(0.015625)"/>
     <path id="DejaVuSans-70" d="M 1159 525 
L 1159 -1331 
L 581 -1331 
L 581 3500 
L 1159 3500 
L 1159 2969 
Q 1341 3281 1617 3432 
Q 1894 3584 2278 3584 
Q 2916 3584 3314 3078 
Q 3713 2572 3713 1747 
Q 3713 922 3314 415 
Q 2916 -91 2278 -91 
Q 1894 -91 1617 61 
Q 1341 213 1159 525 
z
M 3116 1747 
Q 3116 2381 2855 2742 
Q 2594 3103 2138 3103 
Q 1681 3103 1420 2742 
Q 1159 2381 1159 1747 
Q 1159 1113 1420 752 
Q 1681 391 2138 391 
Q 2594 391 2855 752 
Q 3116 1113 3116 1747 
z
" transform="scale(0.015625)"/>
     <path id="DejaVuSans-6c" d="M 603 4863 
L 1178 4863 
L 1178 0 
L 603 0 
L 603 4863 
z
" transform="scale(0.015625)"/>
     <path id="DejaVuSans-6f" d="M 1959 3097 
Q 1497 3097 1228 2736 
Q 959 2375 959 1747 
Q 959 1119 1226 758 
Q 1494 397 1959 397 
Q 2419 397 2687 759 
Q 2956 1122 2956 1747 
Q 2956 2369 2687 2733 
Q 2419 3097 1959 3097 
z
M 1959 3584 
Q 2709 3584 3137 3096 
Q 3566 2609 3566 1747 
Q 3566 888 3137 398 
Q 2709 -91 1959 -91 
Q 1206 -91 779 398 
Q 353 888 353 1747 
Q 353 2609 779 3096 
Q 1206 3584 1959 3584 
z
" transform="scale(0.015625)"/>
     <path id="DejaVuSans-6b" d="M 581 4863 
L 1159 4863 
L 1159 1991 
L 2875 3500 
L 3609 3500 
L 1753 1863 
L 3688 0 
L 2938 0 
L 1159 1709 
L 1159 0 
L 581 0 
L 581 4863 
z
" transform="scale(0.015625)"/>
     <path id="DejaVuSans-29" d="M 513 4856 
L 1013 4856 
Q 1481 4119 1714 3412 
Q 1947 2706 1947 2009 
Q 1947 1309 1714 600 
Q 1481 -109 1013 -844 
L 513 -844 
Q 928 -128 1133 580 
Q 1338 1288 1338 2009 
Q 1338 2731 1133 3434 
Q 928 4138 513 4856 
z
" transform="scale(0.015625)"/>
    </defs>
    <use xlink:href="#DejaVuSans-69"/>
    <use xlink:href="#DejaVuSans-6e" x="27.783203"/>
    <use xlink:href="#DejaVuSans-74" x="91.162109"/>
    <use xlink:href="#DejaVuSans-65" x="130.371094"/>
    <use xlink:href="#DejaVuSans-6e" x="191.894531"/>
    <use xlink:href="#DejaVuSans-73" x="255.273438"/>
    <use xlink:href="#DejaVuSans-69" x="307.373047"/>
    <use xlink:href="#DejaVuSans-74" x="335.15625"/>
    <use xlink:href="#DejaVuSans-79" x="374.365234"/>
    <use xlink:href="#DejaVuSans-20" x="433.544922"/>
    <use xlink:href="#DejaVuSans-28" x="465.332031"/>
    <use xlink:href="#DejaVuSans-65" x="504.345703"/>
    <use xlink:href="#DejaVuSans-61" x="565.869141"/>
    <use xlink:href="#DejaVuSans-63" x="627.148438"/>
    <use xlink:href="#DejaVuSans-68" x="682.128906"/>
    <use xlink:href="#DejaVuSans-20" x="745.507812"/>
    <use xlink:href="#DejaVuSans-70" x="777.294922"/>
    <use xlink:href="#DejaVuSans-61" x="840.771484"/>
    <use xlink:href="#DejaVuSans-6e" x="902.050781"/>
    <use xlink:href="#DejaVuSans-65" x="965.429688"/>
    <use xlink:href="#DejaVuSans-6c" x="1026.953125"/>
    <use xlink:href="#DejaVuSans-20" x="1054.736328"/>
    <use xlink:href="#DejaVuSans-73" x="1086.523438"/>
    <use xlink:href="#DejaVuSans-63" x="1138.623047"/>
    <use xlink:href="#DejaVuSans-61" x="1193.603516"/>
    <use xlink:href="#DejaVuSans-6c" x="1254.882812"/>
    <use xlink:href="#DejaVuSans-65" x="1282.666016"/>
    <use xlink:href="#DejaVuSans-64" x="1344.189453"/>
    <use xlink:href="#DejaVuSans-20" x="1407.666016"/>
    <use xlink:href="#DejaVuSans-74" x="1439.453125"/>
    <use xlink:href="#DejaVuSans-6f" x="1478.662109"/>
    <use xlink:href="#DejaVuSans-20" x="1539.84375"/>
    <use xlink:href="#DejaVuSans-69" x="1571.630859"/>
    <use xlink:href="#DejaVuSans-74" x="1599.414062"/>
    <use xlink:href="#DejaVuSans-73" x="1638.623047"/>
    <use xlink:href="#DejaVuSans-20" x="1690.722656"/>
    <use xlink:href="#DejaVuSans-6f" x="1722.509766"/>
    <use xlink:href="#DejaVuSans-77" x="1783.691406"/>
    <use xlink:href="#DejaVuSans-6e" x="1865.478516"/>
    <use xlink:href="#DejaVuSans-20" x="1928.857422"/>
    <use xlink:href="#DejaVuSans-70" x="1960.644531"/>
    <use xlink:href="#DejaVuSans-65" x="2024.121094"/>
    <use xlink:href="#DejaVuSans-61" x="2085.644531"/>
    <use xlink:href="#DejaVuSans-6b" x="2146.923828"/>
    <use xlink:href="#DejaVuSans-29" x="2204.833984"/>
   </g>
  </g>
 </g>
 <defs>
  <clipPath id="p00989fcb3f">
   <rect x="74.304" y="23.76" width="424.08" height="86.775652"/>
  </clipPath>
  <clipPath id="p033afccec5">
   <rect x="74.304" y="127.890783" width="424.08" height="86.775652"/>
  </clipPath>
  <clipPath id="pdaf4f10e2c">
   <rect x="74.304" y="232.021565" width="424.08" height="86.775652"/>
  </clipPath>
  <clipPath id="p1e729aa0c3">
   <rect x="74.304" y="336.152348" width="424.08" height="86.775652"/>
  </clipPath>
 </defs>
</svg>
