<?xml version="1.0" encoding="utf-8" standalone="no"?>
<!DOCTYPE svg PUBLIC "-//W3C//DTD SVG 1.1//EN"
  "http://www.w3.org/Graphics/SVG/1.1/DTD/svg11.dtd">
<svg xmlns:xlink="http://www.w3.org/1999/xlink" width="540.72pt" height="301.752pt" viewBox="0 0 540.72 301.752" xmlns="http://www.w3.org/2000/svg" version="1.1">
 <metadata>
  <rdf:RDF xmlns:dc="http://purl.org/dc/elements/1.1/" xmlns:cc="http://creativecommons.org/ns#" xmlns:rdf="http://www.w3.org/1999/02/22-rdf-syntax-ns#">
   <cc:Work>
    <dc:type rdf:resource="http://purl.org/dc/dcmitype/StillImage"/>
    <dc:date>2026-01-01</dc:date>
    <dc:format>image/svg+xml</dc:format>
    <dc:creator>
     <cc:Agent>
      <dc:title>Matplotlib v3.11.1, https://matplotlib.org/</dc:title>
     </cc:Agent>
    </dc:creator>
   </cc:Work>
  </rdf:RDF>
 </metadata>
 <defs>
  <style type="text/css">*{stroke-linejoin: round; stroke-linecap: butt}</style>
 </defs>
 <g id="figure_1">
  <g id="patch_1">
   <path d="M 0 301.752 
L 540.72 301.752 
L 540.72 0 
L 0 0 
z
" style="fill: #ffffff"/>
  </g>
  <g id="axes_1">
   <g id="patch_2">
    <path d="M 8.64 293.112 
L 264.42 293.112 
L 264.42 38.592 
L 8.64 38.592 
z
" style="fill: #ffffff"/>
   </g>
   <g id="matplotlib.axis_1"/>
   <g id="matplotlib.axis_2"/>
   <g id="LineCollection_1">
    <path d="M 28.315385 151.712 
L 93.9 151.712 
" clip-path="url(#pff7aa1ba46)" style="fill: none; stroke: #1769aa; stroke-width: 2.4"/>
   </g>
   <g id="LineCollection_2">
    <path d="M 133.250769 222.412 
L 198.835385 222.412 
" clip-path="url(#pff7aa1ba46)" style="fill: none; stroke: #b33a3a; stroke-width: 2.4"/>
    <path d="M 133.250769 151.712 
L 198.835385 151.712 
" clip-path="url(#pff7aa1ba46)" style="fill: none; stroke: #2e7d5b; stroke-width: 2.4"/>
    <path d="M 133.250769 81.012 
L 198.835385 81.012 
" clip-path="url(#pff7aa1ba46)" style="fill: none; stroke: #6a4c93; stroke-width: 2.4"/>
   </g>
   <g id="patch_3">
    <path d="M 8.64 293.112 
L 8.64 38.592 
" style="fill: none; stroke: #333333; stroke-width: 0.9; stroke-linejoin: miter; stroke-linecap: square"/>
   </g>
   <g id="patch_4">
    <path d="M 8.64 293.112 
L 264.42 293.112 
" style="fill: none; stroke: #333333; stroke-width: 0.9; stroke-linejoin: miter; stroke-linecap: square"/>
   </g>
   <g id="text_1">
    <!-- $m_\ell=-1$ -->
    <g style="fill: #b33a3a" transform="translate(205.393846 224.879773) scale(0.095 -0.095)">
     <defs>
      <path id="DejaVuSans-Oblique-50" d="M 5747 2113 
L 5338 0 
L 4763 0 
L 5166 2094 
Q 5191 2228 5203 2325 
Q 5216 2422 5216 2491 
Q 5216 2772 5059 2928 
Q 4903 3084 4622 3084 
Q 4203 3084 3875 2770 
Q 3547 2456 3450 1953 
L 3066 0 
L 2491 0 
L 2900 2094 
Q 2925 2209 2937 2307 
Q 2950 2406 2950 2484 
Q 2950 2769 2794 2926 
Q 2638 3084 2363 3084 
Q 1938 3084 1609 2770 
Q 1281 2456 1184 1953 
L 800 0 
L 225 0 
L 909 3500 
L 1484 3500 
L 1375 2956 
Q 1609 3263 1923 3423 
Q 2238 3584 2597 3584 
Q 2978 3584 3223 3384 
Q 3469 3184 3519 2828 
Q 3781 3197 4126 3390 
Q 4472 3584 4856 3584 
Q 5306 3584 5551 3325 
Q 5797 3066 5797 2591 
Q 5797 2488 5784 2364 
Q 5772 2241 5747 2113 
z
" transform="scale(0.015625)"/>
      <path id="DejaVuSans-Oblique-ab2" d="M 950 838 
Q 1078 213 1350 213 
Q 1531 213 1766 572 
L 2181 572 
Q 1994 253 1775 88 
Q 1538 -91 1319 -91 
Q 831 -91 634 344 
L 400 0 
L -88 0 
Q 250 459 500 888 
Q 469 1131 469 1397 
Q 469 1872 566 2347 
Q 931 4131 1256 4497 
Q 1481 4750 1866 4750 
Q 2256 4750 2256 4209 
Q 2253 3966 2197 3675 
Q 1972 2484 950 838 
z
M 947 1656 
Q 1531 2744 1709 3613 
Q 1803 4072 1803 4191 
Q 1803 4406 1725 4406 
Q 1384 4134 1081 2516 
Q 997 2063 947 1656 
z
" transform="scale(0.015625)"/>
      <path id="DejaVuSans-20" d="M 678 2906 
L 4684 2906 
L 4684 2381 
L 678 2381 
L 678 2906 
z
M 678 1631 
L 4684 1631 
L 4684 1100 
L 678 1100 
L 678 1631 
z
" transform="scale(0.015625)"/>
      <path id="DejaVuSans-c9c" d="M 678 2272 
L 4684 2272 
L 4684 1741 
L 678 1741 
L 678 2272 
z
" transform="scale(0.015625)"/>
      <path id="DejaVuSans-14" d="M 794 531 
L 1825 531 
L 1825 4091 
L 703 3866 
L 703 4441 
L 1819 4666 
L 2450 4666 
L 2450 531 
L 3481 531 
L 3481 0 
L 794 0 
L 794 531 
z
" transform="scale(0.015625)"/>
     </defs>
     <use xlink:href="#DejaVuSans-Oblique-50" transform="translate(0 0.09375)"/>
     <use xlink:href="#DejaVuSans-Oblique-ab2" transform="translate(97.412109 -14.906201) scale(0.7)"/>
     <use xlink:href="#DejaVuSans-20" transform="translate(148.544922 0.09375)"/>
     <use xlink:href="#DejaVuSans-c9c" transform="translate(251.816406 0.09375)"/>
     <use xlink:href="#DejaVuSans-14" transform="translate(335.605469 0.09375)"/>
    </g>
   </g>
   <g id="text_2">
    <!-- $m_\ell=0$ -->
    <g style="fill: #2e7d5b" transform="translate(205.393846 154.179773) scale(0.095 -0.095)">
     <defs>
      <path id="DejaVuSans-13" d="M 2034 4250 
Q 1547 4250 1301 3770 
Q 1056 3291 1056 2328 
Q 1056 1369 1301 889 
Q 1547 409 2034 409 
Q 2525 409 2770 889 
Q 3016 1369 3016 2328 
Q 3016 3291 2770 3770 
Q 2525 4250 2034 4250 
z
M 2034 4750 
Q 2819 4750 3233 4129 
Q 3647 3509 3647 2328 
Q 3647 1150 3233 529 
Q 2819 -91 2034 -91 
Q 1250 -91 836 529 
Q 422 1150 422 2328 
Q 422 3509 836 4129 
Q 1250 4750 2034 4750 
z
" transform="scale(0.015625)"/>
     </defs>
     <use xlink:href="#DejaVuSans-Oblique-50" transform="translate(0 0.78125)"/>
     <use xlink:href="#DejaVuSans-Oblique-ab2" transform="translate(97.412109 -14.218701) scale(0.7)"/>
     <use xlink:href="#DejaVuSans-20" transform="translate(148.544922 0.78125)"/>
     <use xlink:href="#DejaVuSans-13" transform="translate(251.816406 0.78125)"/>
    </g>
   </g>
   <g id="text_3">
    <!-- $m_\ell=1$ -->
    <g style="fill: #6a4c93" transform="translate(205.393846 83.479773) scale(0.095 -0.095)">
     <use xlink:href="#DejaVuSans-Oblique-50" transform="translate(0 0.09375)"/>
     <use xlink:href="#DejaVuSans-Oblique-ab2" transform="translate(97.412109 -14.906201) scale(0.7)"/>
     <use xlink:href="#DejaVuSans-20" transform="translate(148.544922 0.09375)"/>
     <use xlink:href="#DejaVuSans-14" transform="translate(251.816406 0.09375)"/>
    </g>
   </g>
   <g id="patch_5">
    <path d="M 101.343918 139.317277 
Q 113.574856 114.595568 125.310012 90.875956 
" style="fill: none; stroke: #555555; stroke-linecap: round"/>
    <path d="M 121.387002 93.84412 
L 125.310012 90.875956 
L 125.330737 95.795262 
" style="fill: none; stroke: #555555; stroke-linecap: round"/>
   </g>
   <g id="text_4">
    <!-- $\ell=1$ -->
    <g style="fill: #333333" transform="translate(43.149231 252.827703) scale(0.1 -0.1)">
     <use xlink:href="#DejaVuSans-Oblique-ab2" transform="translate(0 0.78125)"/>
     <use xlink:href="#DejaVuSans-20" transform="translate(60.791016 0.78125)"/>
     <use xlink:href="#DejaVuSans-14" transform="translate(164.0625 0.78125)"/>
    </g>
    <!-- field off $\to$ on -->
    <g style="fill: #333333" transform="translate(19.999231 264.832) scale(0.1 -0.1)">
     <defs>
      <path id="DejaVuSans-49" d="M 2375 4863 
L 2375 4384 
L 1825 4384 
Q 1516 4384 1395 4259 
Q 1275 4134 1275 3809 
L 1275 3500 
L 2222 3500 
L 2222 3053 
L 1275 3053 
L 1275 0 
L 697 0 
L 697 3053 
L 147 3053 
L 147 3500 
L 697 3500 
L 697 3744 
Q 697 4328 969 4595 
Q 1241 4863 1831 4863 
L 2375 4863 
z
" transform="scale(0.015625)"/>
      <path id="DejaVuSans-4c" d="M 603 3500 
L 1178 3500 
L 1178 0 
L 603 0 
L 603 3500 
z
M 603 4863 
L 1178 4863 
L 1178 4134 
L 603 4134 
L 603 4863 
z
" transform="scale(0.015625)"/>
      <path id="DejaVuSans-48" d="M 3597 1894 
L 3597 1613 
L 953 1613 
Q 991 1019 1311 708 
Q 1631 397 2203 397 
Q 2534 397 2845 478 
Q 3156 559 3463 722 
L 3463 178 
Q 3153 47 2828 -22 
Q 2503 -91 2169 -91 
Q 1331 -91 842 396 
Q 353 884 353 1716 
Q 353 2575 817 3079 
Q 1281 3584 2069 3584 
Q 2775 3584 3186 3129 
Q 3597 2675 3597 1894 
z
M 3022 2063 
Q 3016 2534 2758 2815 
Q 2500 3097 2075 3097 
Q 1594 3097 1305 2825 
Q 1016 2553 972 2059 
L 3022 2063 
z
" transform="scale(0.015625)"/>
      <path id="DejaVuSans-4f" d="M 603 4863 
L 1178 4863 
L 1178 0 
L 603 0 
L 603 4863 
z
" transform="scale(0.015625)"/>
      <path id="DejaVuSans-47" d="M 2906 2969 
L 2906 4863 
L 3481 4863 
L 3481 0 
L 2906 0 
L 2906 525 
Q 2725 213 2448 61 
Q 2172 -91 1784 -91 
Q 1150 -91 751 415 
Q 353 922 353 1747 
Q 353 2572 751 3078 
Q 1150 3584 1784 3584 
Q 2172 3584 2448 3432 
Q 2725 3281 2906 2969 
z
M 947 1747 
Q 947 1113 1208 752 
Q 1469 391 1925 391 
Q 2381 391 2643 752 
Q 2906 1113 2906 1747 
Q 2906 2381 2643 2742 
Q 2381 3103 1925 3103 
Q 1469 3103 1208 2742 
Q 947 2381 947 1747 
z
" transform="scale(0.015625)"/>
      <path id="DejaVuSans-3" transform="scale(0.015625)"/>
      <path id="DejaVuSans-52" d="M 1959 3097 
Q 1497 3097 1228 2736 
Q 959 2375 959 1747 
Q 959 1119 1226 758 
Q 1494 397 1959 397 
Q 2419 397 2687 759 
Q 2956 1122 2956 1747 
Q 2956 2369 2687 2733 
Q 2419 3097 1959 3097 
z
M 1959 3584 
Q 2709 3584 3137 3096 
Q 3566 2609 3566 1747 
Q 3566 888 3137 398 
Q 2709 -91 1959 -91 
Q 1206 -91 779 398 
Q 353 888 353 1747 
Q 353 2609 779 3096 
Q 1206 3584 1959 3584 
z
" transform="scale(0.015625)"/>
      <path id="DejaVuSans-c1c" d="M 5050 2147 
L 5050 1866 
L 3822 638 
L 3447 1013 
L 4175 1741 
L 366 1741 
L 366 2272 
L 4175 2272 
L 3447 3000 
L 3822 3375 
L 5050 2147 
z
" transform="scale(0.015625)"/>
      <path id="DejaVuSans-51" d="M 3513 2113 
L 3513 0 
L 2938 0 
L 2938 2094 
Q 2938 2591 2744 2837 
Q 2550 3084 2163 3084 
Q 1697 3084 1428 2787 
Q 1159 2491 1159 1978 
L 1159 0 
L 581 0 
L 581 3500 
L 1159 3500 
L 1159 2956 
Q 1366 3272 1645 3428 
Q 1925 3584 2291 3584 
Q 2894 3584 3203 3211 
Q 3513 2838 3513 2113 
z
" transform="scale(0.015625)"/>
     </defs>
     <use xlink:href="#DejaVuSans-49" transform="translate(0 0.015625)"/>
     <use xlink:href="#DejaVuSans-4c" transform="translate(35.205078 0.015625)"/>
     <use xlink:href="#DejaVuSans-48" transform="translate(62.988281 0.015625)"/>
     <use xlink:href="#DejaVuSans-4f" transform="translate(124.511719 0.015625)"/>
     <use xlink:href="#DejaVuSans-47" transform="translate(152.294922 0.015625)"/>
     <use xlink:href="#DejaVuSans-3" transform="translate(215.771484 0.015625)"/>
     <use xlink:href="#DejaVuSans-52" transform="translate(247.558594 0.015625)"/>
     <use xlink:href="#DejaVuSans-49" transform="translate(308.740234 0.015625)"/>
     <use xlink:href="#DejaVuSans-49" transform="translate(343.945312 0.015625)"/>
     <use xlink:href="#DejaVuSans-3" transform="translate(379.150391 0.015625)"/>
     <use xlink:href="#DejaVuSans-c1c" transform="translate(430.419922 0.015625)"/>
     <use xlink:href="#DejaVuSans-3" transform="translate(533.691406 0.015625)"/>
     <use xlink:href="#DejaVuSans-52" transform="translate(565.478516 0.015625)"/>
     <use xlink:href="#DejaVuSans-51" transform="translate(626.660156 0.015625)"/>
    </g>
   </g>
  </g>
  <g id="axes_2">
   <g id="patch_6">
    <path d="M 276.3 293.112 
L 532.08 293.112 
L 532.08 38.592 
L 276.3 38.592 
z
" style="fill: #ffffff"/>
   </g>
   <g id="matplotlib.axis_3"/>
   <g id="matplotlib.axis_4"/>
   <g id="LineCollection_3">
    <path d="M 295.975385 151.712 
L 361.56 151.712 
" clip-path="url(#pb3bfa21de1)" style="fill: none; stroke: #1769aa; stroke-width: 2.4"/>
   </g>
   <g id="LineCollection_4">
    <path d="M 400.910769 151.712 
L 466.495385 151.712 
" clip-path="url(#pb3bfa21de1)" style="fill: none; stroke: #1769aa; stroke-width: 2.4"/>
   </g>
   <g id="patch_7">
    <path d="M 276.3 293.112 
L 276.3 38.592 
" style="fill: none; stroke: #333333; stroke-width: 0.9; stroke-linejoin: miter; stroke-linecap: square"/>
   </g>
   <g id="patch_8">
    <path d="M 276.3 293.112 
L 532.08 293.112 
" style="fill: none; stroke: #333333; stroke-width: 0.9; stroke-linejoin: miter; stroke-linecap: square"/>
   </g>
   <g id="text_5">
    <!-- $m_\ell=0$ -->
    <g style="fill: #1769aa" transform="translate(473.053846 154.179773) scale(0.095 -0.095)">
     <use xlink:href="#DejaVuSans-Oblique-50" transform="translate(0 0.78125)"/>
     <use xlink:href="#DejaVuSans-Oblique-ab2" transform="translate(97.412109 -14.218701) scale(0.7)"/>
     <use xlink:href="#DejaVuSans-20" transform="translate(148.544922 0.78125)"/>
     <use xlink:href="#DejaVuSans-13" transform="translate(251.816406 0.78125)"/>
    </g>
   </g>
   <g id="patch_9">
    <path d="M 370.119945 148.177 
Q 381.234826 148.177 391.231672 148.177 
" style="fill: none; stroke: #555555; stroke-linecap: round"/>
    <path d="M 386.831672 145.977 
L 391.231672 148.177 
L 386.831672 150.377 
" style="fill: none; stroke: #555555; stroke-linecap: round"/>
   </g>
   <g id="text_6">
    <!-- $\ell=0$ -->
    <g style="fill: #333333" transform="translate(310.809231 252.827703) scale(0.1 -0.1)">
     <use xlink:href="#DejaVuSans-Oblique-ab2" transform="translate(0 0.78125)"/>
     <use xlink:href="#DejaVuSans-20" transform="translate(60.791016 0.78125)"/>
     <use xlink:href="#DejaVuSans-13" transform="translate(164.0625 0.78125)"/>
    </g>
    <!-- field off $\to$ on -->
    <g style="fill: #333333" transform="translate(287.659231 264.832) scale(0.1 -0.1)">
     <use xlink:href="#DejaVuSans-49" transform="translate(0 0.015625)"/>
     <use xlink:href="#DejaVuSans-4c" transform="translate(35.205078 0.015625)"/>
     <use xlink:href="#DejaVuSans-48" transform="translate(62.988281 0.015625)"/>
     <use xlink:href="#DejaVuSans-4f" transform="translate(124.511719 0.015625)"/>
     <use xlink:href="#DejaVuSans-47" transform="translate(152.294922 0.015625)"/>
     <use xlink:href="#DejaVuSans-3" transform="translate(215.771484 0.015625)"/>
     <use xlink:href="#DejaVuSans-52" transform="translate(247.558594 0.015625)"/>
     <use xlink:href="#DejaVuSans-49" transform="translate(308.740234 0.015625)"/>
     <use xlink:href="#DejaVuSans-49" transform="translate(343.945312 0.015625)"/>
     <use xlink:href="#DejaVuSans-3" transform="translate(379.150391 0.015625)"/>
     <use xlink:href="#DejaVuSans-c1c" transform="translate(430.419922 0.015625)"/>
     <use xlink:href="#DejaVuSans-3" transform="translate(533.691406 0.015625)"/>
     <use xlink:href="#DejaVuSans-52" transform="translate(565.478516 0.015625)"/>
     <use xlink:href="#DejaVuSans-51" transform="translate(626.660156 0.015625)"/>
    </g>
   </g>
  </g>
  <g id="text_7">
   <!-- Orbital Zeeman splitting: $\ell=1$ gives three levels, $\ell=0$ gives one -->
   <g transform="translate(63.475 17.38) scale(0.115 -0.115)">
    <defs>
     <path id="DejaVuSans-Bold-32" d="M 2719 3878 
Q 2169 3878 1866 3472 
Q 1563 3066 1563 2328 
Q 1563 1594 1866 1187 
Q 2169 781 2719 781 
Q 3272 781 3575 1187 
Q 3878 1594 3878 2328 
Q 3878 3066 3575 3472 
Q 3272 3878 2719 3878 
z
M 2719 4750 
Q 3844 4750 4481 4106 
Q 5119 3463 5119 2328 
Q 5119 1197 4481 553 
Q 3844 -91 2719 -91 
Q 1597 -91 958 553 
Q 319 1197 319 2328 
Q 319 3463 958 4106 
Q 1597 4750 2719 4750 
z
" transform="scale(0.015625)"/>
     <path id="DejaVuSans-Bold-55" d="M 3138 2547 
Q 2991 2616 2845 2648 
Q 2700 2681 2553 2681 
Q 2122 2681 1889 2404 
Q 1656 2128 1656 1613 
L 1656 0 
L 538 0 
L 538 3500 
L 1656 3500 
L 1656 2925 
Q 1872 3269 2151 3426 
Q 2431 3584 2822 3584 
Q 2878 3584 2943 3579 
Q 3009 3575 3134 3559 
L 3138 2547 
z
" transform="scale(0.015625)"/>
     <path id="DejaVuSans-Bold-45" d="M 2400 722 
Q 2759 722 2948 984 
Q 3138 1247 3138 1747 
Q 3138 2247 2948 2509 
Q 2759 2772 2400 2772 
Q 2041 2772 1848 2508 
Q 1656 2244 1656 1747 
Q 1656 1250 1848 986 
Q 2041 722 2400 722 
z
M 1656 2988 
Q 1888 3294 2169 3439 
Q 2450 3584 2816 3584 
Q 3463 3584 3878 3070 
Q 4294 2556 4294 1747 
Q 4294 938 3878 423 
Q 3463 -91 2816 -91 
Q 2450 -91 2169 54 
Q 1888 200 1656 506 
L 1656 0 
L 538 0 
L 538 4863 
L 1656 4863 
L 1656 2988 
z
" transform="scale(0.015625)"/>
     <path id="DejaVuSans-Bold-4c" d="M 538 3500 
L 1656 3500 
L 1656 0 
L 538 0 
L 538 3500 
z
M 538 4863 
L 1656 4863 
L 1656 3950 
L 538 3950 
L 538 4863 
z
" transform="scale(0.015625)"/>
     <path id="DejaVuSans-Bold-57" d="M 1759 4494 
L 1759 3500 
L 2913 3500 
L 2913 2700 
L 1759 2700 
L 1759 1216 
Q 1759 972 1856 886 
Q 1953 800 2241 800 
L 2816 800 
L 2816 0 
L 1856 0 
Q 1194 0 917 276 
Q 641 553 641 1216 
L 641 2700 
L 84 2700 
L 84 3500 
L 641 3500 
L 641 4494 
L 1759 4494 
z
" transform="scale(0.015625)"/>
     <path id="DejaVuSans-Bold-44" d="M 2106 1575 
Q 1756 1575 1579 1456 
Q 1403 1338 1403 1106 
Q 1403 894 1545 773 
Q 1688 653 1941 653 
Q 2256 653 2472 879 
Q 2688 1106 2688 1447 
L 2688 1575 
L 2106 1575 
z
M 3816 1997 
L 3816 0 
L 2688 0 
L 2688 519 
Q 2463 200 2181 54 
Q 1900 -91 1497 -91 
Q 953 -91 614 226 
Q 275 544 275 1050 
Q 275 1666 698 1953 
Q 1122 2241 2028 2241 
L 2688 2241 
L 2688 2328 
Q 2688 2594 2478 2717 
Q 2269 2841 1825 2841 
Q 1466 2841 1156 2769 
Q 847 2697 581 2553 
L 581 3406 
Q 941 3494 1303 3539 
Q 1666 3584 2028 3584 
Q 2975 3584 3395 3211 
Q 3816 2838 3816 1997 
z
" transform="scale(0.015625)"/>
     <path id="DejaVuSans-Bold-4f" d="M 538 4863 
L 1656 4863 
L 1656 0 
L 538 0 
L 538 4863 
z
" transform="scale(0.015625)"/>
     <path id="DejaVuSans-Bold-3" transform="scale(0.015625)"/>
     <path id="DejaVuSans-Bold-3d" d="M 359 4666 
L 4281 4666 
L 4281 3938 
L 1778 909 
L 4353 909 
L 4353 0 
L 288 0 
L 288 728 
L 2791 3756 
L 359 3756 
L 359 4666 
z
" transform="scale(0.015625)"/>
     <path id="DejaVuSans-Bold-48" d="M 4031 1759 
L 4031 1441 
L 1416 1441 
Q 1456 1047 1700 850 
Q 1944 653 2381 653 
Q 2734 653 3104 758 
Q 3475 863 3866 1075 
L 3866 213 
Q 3469 63 3072 -14 
Q 2675 -91 2278 -91 
Q 1328 -91 801 392 
Q 275 875 275 1747 
Q 275 2603 792 3093 
Q 1309 3584 2216 3584 
Q 3041 3584 3536 3087 
Q 4031 2591 4031 1759 
z
M 2881 2131 
Q 2881 2450 2695 2645 
Q 2509 2841 2209 2841 
Q 1884 2841 1681 2658 
Q 1478 2475 1428 2131 
L 2881 2131 
z
" transform="scale(0.015625)"/>
     <path id="DejaVuSans-Bold-50" d="M 3781 2919 
Q 3994 3244 4286 3414 
Q 4578 3584 4928 3584 
Q 5531 3584 5847 3212 
Q 6163 2841 6163 2131 
L 6163 0 
L 5038 0 
L 5038 1825 
Q 5041 1866 5042 1909 
Q 5044 1953 5044 2034 
Q 5044 2406 4934 2573 
Q 4825 2741 4581 2741 
Q 4263 2741 4089 2478 
Q 3916 2216 3909 1719 
L 3909 0 
L 2784 0 
L 2784 1825 
Q 2784 2406 2684 2573 
Q 2584 2741 2328 2741 
Q 2006 2741 1831 2477 
Q 1656 2213 1656 1722 
L 1656 0 
L 531 0 
L 531 3500 
L 1656 3500 
L 1656 2988 
Q 1863 3284 2130 3434 
Q 2397 3584 2719 3584 
Q 3081 3584 3359 3409 
Q 3638 3234 3781 2919 
z
" transform="scale(0.015625)"/>
     <path id="DejaVuSans-Bold-51" d="M 4056 2131 
L 4056 0 
L 2931 0 
L 2931 347 
L 2931 1631 
Q 2931 2084 2911 2256 
Q 2891 2428 2841 2509 
Q 2775 2619 2662 2680 
Q 2550 2741 2406 2741 
Q 2056 2741 1856 2470 
Q 1656 2200 1656 1722 
L 1656 0 
L 538 0 
L 538 3500 
L 1656 3500 
L 1656 2988 
Q 1909 3294 2193 3439 
Q 2478 3584 2822 3584 
Q 3428 3584 3742 3212 
Q 4056 2841 4056 2131 
z
" transform="scale(0.015625)"/>
     <path id="DejaVuSans-Bold-56" d="M 3272 3391 
L 3272 2541 
Q 2913 2691 2578 2766 
Q 2244 2841 1947 2841 
Q 1628 2841 1473 2761 
Q 1319 2681 1319 2516 
Q 1319 2381 1436 2309 
Q 1553 2238 1856 2203 
L 2053 2175 
Q 2913 2066 3209 1816 
Q 3506 1566 3506 1031 
Q 3506 472 3093 190 
Q 2681 -91 1863 -91 
Q 1516 -91 1145 -36 
Q 775 19 384 128 
L 384 978 
Q 719 816 1070 734 
Q 1422 653 1784 653 
Q 2113 653 2278 743 
Q 2444 834 2444 1013 
Q 2444 1163 2330 1236 
Q 2216 1309 1875 1350 
L 1678 1375 
Q 931 1469 631 1722 
Q 331 1975 331 2491 
Q 331 3047 712 3315 
Q 1094 3584 1881 3584 
Q 2191 3584 2531 3537 
Q 2872 3491 3272 3391 
z
" transform="scale(0.015625)"/>
     <path id="DejaVuSans-Bold-53" d="M 1656 506 
L 1656 -1331 
L 538 -1331 
L 538 3500 
L 1656 3500 
L 1656 2988 
Q 1888 3294 2169 3439 
Q 2450 3584 2816 3584 
Q 3463 3584 3878 3070 
Q 4294 2556 4294 1747 
Q 4294 938 3878 423 
Q 3463 -91 2816 -91 
Q 2450 -91 2169 54 
Q 1888 200 1656 506 
z
M 2400 2772 
Q 2041 2772 1848 2508 
Q 1656 2244 1656 1747 
Q 1656 1250 1848 986 
Q 2041 722 2400 722 
Q 2759 722 2948 984 
Q 3138 1247 3138 1747 
Q 3138 2247 2948 2509 
Q 2759 2772 2400 2772 
z
" transform="scale(0.015625)"/>
     <path id="DejaVuSans-Bold-4a" d="M 2919 594 
Q 2688 288 2409 144 
Q 2131 0 1766 0 
Q 1125 0 706 504 
Q 288 1009 288 1791 
Q 288 2575 706 3076 
Q 1125 3578 1766 3578 
Q 2131 3578 2409 3434 
Q 2688 3291 2919 2981 
L 2919 3500 
L 4044 3500 
L 4044 353 
Q 4044 -491 3511 -936 
Q 2978 -1381 1966 -1381 
Q 1638 -1381 1331 -1331 
Q 1025 -1281 716 -1178 
L 716 -306 
Q 1009 -475 1290 -558 
Q 1572 -641 1856 -641 
Q 2406 -641 2662 -400 
Q 2919 -159 2919 353 
L 2919 594 
z
M 2181 2772 
Q 1834 2772 1640 2515 
Q 1447 2259 1447 1791 
Q 1447 1309 1634 1061 
Q 1822 813 2181 813 
Q 2531 813 2725 1069 
Q 2919 1325 2919 1791 
Q 2919 2259 2725 2515 
Q 2531 2772 2181 2772 
z
" transform="scale(0.015625)"/>
     <path id="DejaVuSans-Bold-1d" d="M 716 3500 
L 1844 3500 
L 1844 2291 
L 716 2291 
L 716 3500 
z
M 716 1209 
L 1844 1209 
L 1844 0 
L 716 0 
L 716 1209 
z
" transform="scale(0.015625)"/>
     <path id="DejaVuSans-Bold-59" d="M 97 3500 
L 1216 3500 
L 2088 1081 
L 2956 3500 
L 4078 3500 
L 2700 0 
L 1472 0 
L 97 3500 
z
" transform="scale(0.015625)"/>
     <path id="DejaVuSans-Bold-4b" d="M 4056 2131 
L 4056 0 
L 2931 0 
L 2931 347 
L 2931 1625 
Q 2931 2084 2911 2256 
Q 2891 2428 2841 2509 
Q 2775 2619 2662 2680 
Q 2550 2741 2406 2741 
Q 2056 2741 1856 2470 
Q 1656 2200 1656 1722 
L 1656 0 
L 538 0 
L 538 4863 
L 1656 4863 
L 1656 2988 
Q 1909 3294 2193 3439 
Q 2478 3584 2822 3584 
Q 3428 3584 3742 3212 
Q 4056 2841 4056 2131 
z
" transform="scale(0.015625)"/>
     <path id="DejaVuSans-Bold-f" d="M 653 1209 
L 1778 1209 
L 1778 256 
L 1006 -909 
L 341 -909 
L 653 256 
L 653 1209 
z
" transform="scale(0.015625)"/>
     <path id="DejaVuSans-Bold-52" d="M 2203 2784 
Q 1831 2784 1636 2517 
Q 1441 2250 1441 1747 
Q 1441 1244 1636 976 
Q 1831 709 2203 709 
Q 2569 709 2762 976 
Q 2956 1244 2956 1747 
Q 2956 2250 2762 2517 
Q 2569 2784 2203 2784 
z
M 2203 3584 
Q 3106 3584 3614 3096 
Q 4122 2609 4122 1747 
Q 4122 884 3614 396 
Q 3106 -91 2203 -91 
Q 1297 -91 786 396 
Q 275 884 275 1747 
Q 275 2609 786 3096 
Q 1297 3584 2203 3584 
z
" transform="scale(0.015625)"/>
    </defs>
    <use xlink:href="#DejaVuSans-Bold-32" transform="translate(0 0.015625)"/>
    <use xlink:href="#DejaVuSans-Bold-55" transform="translate(85.009766 0.015625)"/>
    <use xlink:href="#DejaVuSans-Bold-45" transform="translate(134.326172 0.015625)"/>
    <use xlink:href="#DejaVuSans-Bold-4c" transform="translate(205.908203 0.015625)"/>
    <use xlink:href="#DejaVuSans-Bold-57" transform="translate(240.185547 0.015625)"/>
    <use xlink:href="#DejaVuSans-Bold-44" transform="translate(287.988281 0.015625)"/>
    <use xlink:href="#DejaVuSans-Bold-4f" transform="translate(355.46875 0.015625)"/>
    <use xlink:href="#DejaVuSans-Bold-3" transform="translate(389.746094 0.015625)"/>
    <use xlink:href="#DejaVuSans-Bold-3d" transform="translate(424.560547 0.015625)"/>
    <use xlink:href="#DejaVuSans-Bold-48" transform="translate(497.070312 0.015625)"/>
    <use xlink:href="#DejaVuSans-Bold-48" transform="translate(564.892578 0.015625)"/>
    <use xlink:href="#DejaVuSans-Bold-50" transform="translate(632.714844 0.015625)"/>
    <use xlink:href="#DejaVuSans-Bold-44" transform="translate(736.914062 0.015625)"/>
    <use xlink:href="#DejaVuSans-Bold-51" transform="translate(804.394531 0.015625)"/>
    <use xlink:href="#DejaVuSans-Bold-3" transform="translate(875.585938 0.015625)"/>
    <use xlink:href="#DejaVuSans-Bold-56" transform="translate(910.400391 0.015625)"/>
    <use xlink:href="#DejaVuSans-Bold-53" transform="translate(969.921875 0.015625)"/>
    <use xlink:href="#DejaVuSans-Bold-4f" transform="translate(1041.503906 0.015625)"/>
    <use xlink:href="#DejaVuSans-Bold-4c" transform="translate(1075.78125 0.015625)"/>
    <use xlink:href="#DejaVuSans-Bold-57" transform="translate(1110.058594 0.015625)"/>
    <use xlink:href="#DejaVuSans-Bold-57" transform="translate(1157.861328 0.015625)"/>
    <use xlink:href="#DejaVuSans-Bold-4c" transform="translate(1205.664062 0.015625)"/>
    <use xlink:href="#DejaVuSans-Bold-51" transform="translate(1239.941406 0.015625)"/>
    <use xlink:href="#DejaVuSans-Bold-4a" transform="translate(1311.132812 0.015625)"/>
    <use xlink:href="#DejaVuSans-Bold-1d" transform="translate(1382.714844 0.015625)"/>
    <use xlink:href="#DejaVuSans-Bold-3" transform="translate(1422.705078 0.015625)"/>
    <use xlink:href="#DejaVuSans-Oblique-ab2" transform="translate(1457.519531 0.015625)"/>
    <use xlink:href="#DejaVuSans-20" transform="translate(1518.310547 0.015625)"/>
    <use xlink:href="#DejaVuSans-14" transform="translate(1621.582031 0.015625)"/>
    <use xlink:href="#DejaVuSans-Bold-3" transform="translate(1685.205078 0.015625)"/>
    <use xlink:href="#DejaVuSans-Bold-4a" transform="translate(1720.019531 0.015625)"/>
    <use xlink:href="#DejaVuSans-Bold-4c" transform="translate(1791.601562 0.015625)"/>
    <use xlink:href="#DejaVuSans-Bold-59" transform="translate(1825.878906 0.015625)"/>
    <use xlink:href="#DejaVuSans-Bold-48" transform="translate(1891.064453 0.015625)"/>
    <use xlink:href="#DejaVuSans-Bold-56" transform="translate(1958.886719 0.015625)"/>
    <use xlink:href="#DejaVuSans-Bold-3" transform="translate(2018.408203 0.015625)"/>
    <use xlink:href="#DejaVuSans-Bold-57" transform="translate(2053.222656 0.015625)"/>
    <use xlink:href="#DejaVuSans-Bold-4b" transform="translate(2101.025391 0.015625)"/>
    <use xlink:href="#DejaVuSans-Bold-55" transform="translate(2172.216797 0.015625)"/>
    <use xlink:href="#DejaVuSans-Bold-48" transform="translate(2221.533203 0.015625)"/>
    <use xlink:href="#DejaVuSans-Bold-48" transform="translate(2289.355469 0.015625)"/>
    <use xlink:href="#DejaVuSans-Bold-3" transform="translate(2357.177734 0.015625)"/>
    <use xlink:href="#DejaVuSans-Bold-4f" transform="translate(2391.992188 0.015625)"/>
    <use xlink:href="#DejaVuSans-Bold-48" transform="translate(2426.269531 0.015625)"/>
    <use xlink:href="#DejaVuSans-Bold-59" transform="translate(2494.091797 0.015625)"/>
    <use xlink:href="#DejaVuSans-Bold-48" transform="translate(2559.277344 0.015625)"/>
    <use xlink:href="#DejaVuSans-Bold-4f" transform="translate(2627.099609 0.015625)"/>
    <use xlink:href="#DejaVuSans-Bold-56" transform="translate(2661.376953 0.015625)"/>
    <use xlink:href="#DejaVuSans-Bold-f" transform="translate(2720.898438 0.015625)"/>
    <use xlink:href="#DejaVuSans-Bold-3" transform="translate(2758.886719 0.015625)"/>
    <use xlink:href="#DejaVuSans-Oblique-ab2" transform="translate(2793.701172 0.015625)"/>
    <use xlink:href="#DejaVuSans-20" transform="translate(2854.492188 0.015625)"/>
    <use xlink:href="#DejaVuSans-13" transform="translate(2957.763672 0.015625)"/>
    <use xlink:href="#DejaVuSans-Bold-3" transform="translate(3021.386719 0.015625)"/>
    <use xlink:href="#DejaVuSans-Bold-4a" transform="translate(3056.201172 0.015625)"/>
    <use xlink:href="#DejaVuSans-Bold-4c" transform="translate(3127.783203 0.015625)"/>
    <use xlink:href="#DejaVuSans-Bold-59" transform="translate(3162.060547 0.015625)"/>
    <use xlink:href="#DejaVuSans-Bold-48" transform="translate(3227.246094 0.015625)"/>
    <use xlink:href="#DejaVuSans-Bold-56" transform="translate(3295.068359 0.015625)"/>
    <use xlink:href="#DejaVuSans-Bold-3" transform="translate(3354.589844 0.015625)"/>
    <use xlink:href="#DejaVuSans-Bold-52" transform="translate(3389.404297 0.015625)"/>
    <use xlink:href="#DejaVuSans-Bold-51" transform="translate(3458.105469 0.015625)"/>
    <use xlink:href="#DejaVuSans-Bold-48" transform="translate(3529.296875 0.015625)"/>
   </g>
  </g>
 </g>
 <defs>
  <clipPath id="pff7aa1ba46">
   <rect x="8.64" y="38.592" width="255.78" height="254.52"/>
  </clipPath>
  <clipPath id="pb3bfa21de1">
   <rect x="276.3" y="38.592" width="255.78" height="254.52"/>
  </clipPath>
 </defs>
</svg>
