<?xml version="1.0" encoding="utf-8" standalone="no"?>
<!DOCTYPE svg PUBLIC "-//W3C//DTD SVG 1.1//EN"
  "http://www.w3.org/Graphics/SVG/1.1/DTD/svg11.dtd">
<svg xmlns:xlink="http://www.w3.org/1999/xlink" width="536.155783pt" height="301.752pt" viewBox="0 0 536.155783 301.752" xmlns="http://www.w3.org/2000/svg" version="1.1">
 <metadata>
  <rdf:RDF xmlns:dc="http://purl.org/dc/elements/1.1/" xmlns:cc="http://creativecommons.org/ns#" xmlns:rdf="http://www.w3.org/1999/02/22-rdf-syntax-ns#">
   <cc:Work>
    <dc:type rdf:resource="http://purl.org/dc/dcmitype/StillImage"/>
    <dc:date>2026-08-27T07:36:03.124264</dc:date>
    <dc:format>image/svg+xml</dc:format>
    <dc:creator>
     <cc:Agent>
      <dc:title>Matplotlib v3.11.1, https://matplotlib.org/</dc:title>
     </cc:Agent>
    </dc:creator>
   </cc:Work>
  </rdf:RDF>
 </metadata>
 <defs>
  <style type="text/css">*{stroke-linejoin: round; stroke-linecap: butt}</style>
 </defs>
 <g id="figure_1">
  <g id="patch_1">
   <path d="M 0 301.752 
L 536.155783 301.752 
L 536.155783 0 
L 0 0 
z
" style="fill: #ffffff"/>
  </g>
  <g id="axes_1">
   <g id="patch_2">
    <path d="M 130.16004 172.623813 
L 133.771527 166.94862 
L 76.322036 121.087539 
L 64.283747 140.004851 
z
" clip-path="url(#pc85f98f50a)" style="fill: #333333"/>
   </g>
   <g id="patch_3">
    <path d="M 164.572385 245.674523 
C 171.309214 248.815958 178.469966 250.330272 184.477568 249.883953 
C 190.48517 249.437635 194.849128 247.067125 196.608332 243.294501 
C 198.367536 239.521877 197.378353 234.655157 193.85864 229.766179 
C 190.338928 224.8772 184.576054 220.365128 177.839225 217.223693 
C 171.102396 214.082258 163.941645 212.567945 157.934043 213.014263 
C 151.92644 213.460582 147.562482 215.831091 145.803278 219.603716 
C 144.044075 223.37634 145.033257 228.24306 148.55297 233.132038 
C 152.072683 238.021016 157.835556 242.533088 164.572385 245.674523 
z
" clip-path="url(#pc85f98f50a)" style="fill: #d97706; opacity: 0.4; stroke: #d97706; stroke-linejoin: miter"/>
   </g>
   <g id="line2d_1">
    <path d="M 131.965783 169.786217 
L 210.445827 169.786217 
" clip-path="url(#pc85f98f50a)" style="fill: none; stroke: #333333; stroke-width: 2; stroke-linecap: square"/>
   </g>
   <g id="line2d_2">
    <path d="M 131.965783 169.786217 
L 92.725761 102.517608 
" clip-path="url(#pc85f98f50a)" style="fill: none; stroke: #333333; stroke-width: 2; stroke-linecap: square"/>
   </g>
   <g id="line2d_3">
    <path d="M 131.965783 169.786217 
L 92.725761 237.054826 
" clip-path="url(#pc85f98f50a)" style="fill: none; stroke: #333333; stroke-width: 2; stroke-linecap: square"/>
   </g>
   <g id="text_1">
    <!-- equatorial -->
    <g style="fill: #8a5a00" transform="translate(150.88518 236.421786) scale(0.08 -0.08)">
     <defs>
      <path id="DejaVuSans-48" d="M 3597 1894 
L 3597 1613 
L 953 1613 
Q 991 1019 1311 708 
Q 1631 397 2203 397 
Q 2534 397 2845 478 
Q 3156 559 3463 722 
L 3463 178 
Q 3153 47 2828 -22 
Q 2503 -91 2169 -91 
Q 1331 -91 842 396 
Q 353 884 353 1716 
Q 353 2575 817 3079 
Q 1281 3584 2069 3584 
Q 2775 3584 3186 3129 
Q 3597 2675 3597 1894 
z
M 3022 2063 
Q 3016 2534 2758 2815 
Q 2500 3097 2075 3097 
Q 1594 3097 1305 2825 
Q 1016 2553 972 2059 
L 3022 2063 
z
" transform="scale(0.015625)"/>
      <path id="DejaVuSans-54" d="M 947 1747 
Q 947 1113 1208 752 
Q 1469 391 1925 391 
Q 2381 391 2643 752 
Q 2906 1113 2906 1747 
Q 2906 2381 2643 2742 
Q 2381 3103 1925 3103 
Q 1469 3103 1208 2742 
Q 947 2381 947 1747 
z
M 2906 525 
Q 2725 213 2448 61 
Q 2172 -91 1784 -91 
Q 1150 -91 751 415 
Q 353 922 353 1747 
Q 353 2572 751 3078 
Q 1150 3584 1784 3584 
Q 2172 3584 2448 3432 
Q 2725 3281 2906 2969 
L 2906 3500 
L 3481 3500 
L 3481 -1331 
L 2906 -1331 
L 2906 525 
z
" transform="scale(0.015625)"/>
      <path id="DejaVuSans-58" d="M 544 1381 
L 544 3500 
L 1119 3500 
L 1119 1403 
Q 1119 906 1312 657 
Q 1506 409 1894 409 
Q 2359 409 2629 706 
Q 2900 1003 2900 1516 
L 2900 3500 
L 3475 3500 
L 3475 0 
L 2900 0 
L 2900 538 
Q 2691 219 2414 64 
Q 2138 -91 1772 -91 
Q 1169 -91 856 284 
Q 544 659 544 1381 
z
M 1991 3584 
L 1991 3584 
z
" transform="scale(0.015625)"/>
      <path id="DejaVuSans-44" d="M 2194 1759 
Q 1497 1759 1228 1600 
Q 959 1441 959 1056 
Q 959 750 1161 570 
Q 1363 391 1709 391 
Q 2188 391 2477 730 
Q 2766 1069 2766 1631 
L 2766 1759 
L 2194 1759 
z
M 3341 1997 
L 3341 0 
L 2766 0 
L 2766 531 
Q 2569 213 2275 61 
Q 1981 -91 1556 -91 
Q 1019 -91 701 211 
Q 384 513 384 1019 
Q 384 1609 779 1909 
Q 1175 2209 1959 2209 
L 2766 2209 
L 2766 2266 
Q 2766 2663 2505 2880 
Q 2244 3097 1772 3097 
Q 1472 3097 1187 3025 
Q 903 2953 641 2809 
L 641 3341 
Q 956 3463 1253 3523 
Q 1550 3584 1831 3584 
Q 2591 3584 2966 3190 
Q 3341 2797 3341 1997 
z
" transform="scale(0.015625)"/>
      <path id="DejaVuSans-57" d="M 1172 4494 
L 1172 3500 
L 2356 3500 
L 2356 3053 
L 1172 3053 
L 1172 1153 
Q 1172 725 1289 603 
Q 1406 481 1766 481 
L 2356 481 
L 2356 0 
L 1766 0 
Q 1100 0 847 248 
Q 594 497 594 1153 
L 594 3053 
L 172 3053 
L 172 3500 
L 594 3500 
L 594 4494 
L 1172 4494 
z
" transform="scale(0.015625)"/>
      <path id="DejaVuSans-52" d="M 1959 3097 
Q 1497 3097 1228 2736 
Q 959 2375 959 1747 
Q 959 1119 1226 758 
Q 1494 397 1959 397 
Q 2419 397 2687 759 
Q 2956 1122 2956 1747 
Q 2956 2369 2687 2733 
Q 2419 3097 1959 3097 
z
M 1959 3584 
Q 2709 3584 3137 3096 
Q 3566 2609 3566 1747 
Q 3566 888 3137 398 
Q 2709 -91 1959 -91 
Q 1206 -91 779 398 
Q 353 888 353 1747 
Q 353 2609 779 3096 
Q 1206 3584 1959 3584 
z
" transform="scale(0.015625)"/>
      <path id="DejaVuSans-55" d="M 2631 2963 
Q 2534 3019 2420 3045 
Q 2306 3072 2169 3072 
Q 1681 3072 1420 2755 
Q 1159 2438 1159 1844 
L 1159 0 
L 581 0 
L 581 3500 
L 1159 3500 
L 1159 2956 
Q 1341 3275 1631 3429 
Q 1922 3584 2338 3584 
Q 2397 3584 2469 3576 
Q 2541 3569 2628 3553 
L 2631 2963 
z
" transform="scale(0.015625)"/>
      <path id="DejaVuSans-4c" d="M 603 3500 
L 1178 3500 
L 1178 0 
L 603 0 
L 603 3500 
z
M 603 4863 
L 1178 4863 
L 1178 4134 
L 603 4134 
L 603 4863 
z
" transform="scale(0.015625)"/>
      <path id="DejaVuSans-4f" d="M 603 4863 
L 1178 4863 
L 1178 0 
L 603 0 
L 603 4863 
z
" transform="scale(0.015625)"/>
     </defs>
     <use xlink:href="#DejaVuSans-48"/>
     <use xlink:href="#DejaVuSans-54" transform="translate(61.53125 0)"/>
     <use xlink:href="#DejaVuSans-58" transform="translate(125.015625 0)"/>
     <use xlink:href="#DejaVuSans-44" transform="translate(188.390625 0)"/>
     <use xlink:href="#DejaVuSans-57" transform="translate(249.671875 0)"/>
     <use xlink:href="#DejaVuSans-52" transform="translate(288.875 0)"/>
     <use xlink:href="#DejaVuSans-55" transform="translate(350.0625 0)"/>
     <use xlink:href="#DejaVuSans-4c" transform="translate(391.171875 0)"/>
     <use xlink:href="#DejaVuSans-44" transform="translate(418.953125 0)"/>
     <use xlink:href="#DejaVuSans-4f" transform="translate(480.234375 0)"/>
    </g>
    <!-- lone pair -->
    <g style="fill: #8a5a00" transform="translate(153.633305 246.023974) scale(0.08 -0.08)">
     <defs>
      <path id="DejaVuSans-51" d="M 3513 2113 
L 3513 0 
L 2938 0 
L 2938 2094 
Q 2938 2591 2744 2837 
Q 2550 3084 2163 3084 
Q 1697 3084 1428 2787 
Q 1159 2491 1159 1978 
L 1159 0 
L 581 0 
L 581 3500 
L 1159 3500 
L 1159 2956 
Q 1366 3272 1645 3428 
Q 1925 3584 2291 3584 
Q 2894 3584 3203 3211 
Q 3513 2838 3513 2113 
z
" transform="scale(0.015625)"/>
      <path id="DejaVuSans-3" transform="scale(0.015625)"/>
      <path id="DejaVuSans-53" d="M 1159 525 
L 1159 -1331 
L 581 -1331 
L 581 3500 
L 1159 3500 
L 1159 2969 
Q 1341 3281 1617 3432 
Q 1894 3584 2278 3584 
Q 2916 3584 3314 3078 
Q 3713 2572 3713 1747 
Q 3713 922 3314 415 
Q 2916 -91 2278 -91 
Q 1894 -91 1617 61 
Q 1341 213 1159 525 
z
M 3116 1747 
Q 3116 2381 2855 2742 
Q 2594 3103 2138 3103 
Q 1681 3103 1420 2742 
Q 1159 2381 1159 1747 
Q 1159 1113 1420 752 
Q 1681 391 2138 391 
Q 2594 391 2855 752 
Q 3116 1113 3116 1747 
z
" transform="scale(0.015625)"/>
     </defs>
     <use xlink:href="#DejaVuSans-4f"/>
     <use xlink:href="#DejaVuSans-52" transform="translate(27.78125 0)"/>
     <use xlink:href="#DejaVuSans-51" transform="translate(88.96875 0)"/>
     <use xlink:href="#DejaVuSans-48" transform="translate(152.34375 0)"/>
     <use xlink:href="#DejaVuSans-3" transform="translate(213.875 0)"/>
     <use xlink:href="#DejaVuSans-53" transform="translate(245.65625 0)"/>
     <use xlink:href="#DejaVuSans-44" transform="translate(309.140625 0)"/>
     <use xlink:href="#DejaVuSans-4c" transform="translate(370.421875 0)"/>
     <use xlink:href="#DejaVuSans-55" transform="translate(398.203125 0)"/>
    </g>
   </g>
   <g id="text_2">
    <!-- SF$_4$: one lone pair -->
    <g transform="translate(79.150783 27.858383) scale(0.105 -0.105)">
     <defs>
      <path id="DejaVuSans-Bold-36" d="M 3834 4519 
L 3834 3531 
Q 3450 3703 3084 3790 
Q 2719 3878 2394 3878 
Q 1963 3878 1756 3759 
Q 1550 3641 1550 3391 
Q 1550 3203 1689 3098 
Q 1828 2994 2194 2919 
L 2706 2816 
Q 3484 2659 3812 2340 
Q 4141 2022 4141 1434 
Q 4141 663 3683 286 
Q 3225 -91 2284 -91 
Q 1841 -91 1394 -6 
Q 947 78 500 244 
L 500 1259 
Q 947 1022 1364 901 
Q 1781 781 2169 781 
Q 2563 781 2772 912 
Q 2981 1044 2981 1288 
Q 2981 1506 2839 1625 
Q 2697 1744 2272 1838 
L 1806 1941 
Q 1106 2091 782 2419 
Q 459 2747 459 3303 
Q 459 4000 909 4375 
Q 1359 4750 2203 4750 
Q 2588 4750 2994 4692 
Q 3400 4634 3834 4519 
z
" transform="scale(0.015625)"/>
      <path id="DejaVuSans-Bold-29" d="M 588 4666 
L 3834 4666 
L 3834 3756 
L 1791 3756 
L 1791 2888 
L 3713 2888 
L 3713 1978 
L 1791 1978 
L 1791 0 
L 588 0 
L 588 4666 
z
" transform="scale(0.015625)"/>
      <path id="DejaVuSans-17" d="M 2419 4116 
L 825 1625 
L 2419 1625 
L 2419 4116 
z
M 2253 4666 
L 3047 4666 
L 3047 1625 
L 3713 1625 
L 3713 1100 
L 3047 1100 
L 3047 0 
L 2419 0 
L 2419 1100 
L 313 1100 
L 313 1709 
L 2253 4666 
z
" transform="scale(0.015625)"/>
      <path id="DejaVuSans-Bold-1d" d="M 716 3500 
L 1844 3500 
L 1844 2291 
L 716 2291 
L 716 3500 
z
M 716 1209 
L 1844 1209 
L 1844 0 
L 716 0 
L 716 1209 
z
" transform="scale(0.015625)"/>
      <path id="DejaVuSans-Bold-3" transform="scale(0.015625)"/>
      <path id="DejaVuSans-Bold-52" d="M 2203 2784 
Q 1831 2784 1636 2517 
Q 1441 2250 1441 1747 
Q 1441 1244 1636 976 
Q 1831 709 2203 709 
Q 2569 709 2762 976 
Q 2956 1244 2956 1747 
Q 2956 2250 2762 2517 
Q 2569 2784 2203 2784 
z
M 2203 3584 
Q 3106 3584 3614 3096 
Q 4122 2609 4122 1747 
Q 4122 884 3614 396 
Q 3106 -91 2203 -91 
Q 1297 -91 786 396 
Q 275 884 275 1747 
Q 275 2609 786 3096 
Q 1297 3584 2203 3584 
z
" transform="scale(0.015625)"/>
      <path id="DejaVuSans-Bold-51" d="M 4056 2131 
L 4056 0 
L 2931 0 
L 2931 347 
L 2931 1631 
Q 2931 2084 2911 2256 
Q 2891 2428 2841 2509 
Q 2775 2619 2662 2680 
Q 2550 2741 2406 2741 
Q 2056 2741 1856 2470 
Q 1656 2200 1656 1722 
L 1656 0 
L 538 0 
L 538 3500 
L 1656 3500 
L 1656 2988 
Q 1909 3294 2193 3439 
Q 2478 3584 2822 3584 
Q 3428 3584 3742 3212 
Q 4056 2841 4056 2131 
z
" transform="scale(0.015625)"/>
      <path id="DejaVuSans-Bold-48" d="M 4031 1759 
L 4031 1441 
L 1416 1441 
Q 1456 1047 1700 850 
Q 1944 653 2381 653 
Q 2734 653 3104 758 
Q 3475 863 3866 1075 
L 3866 213 
Q 3469 63 3072 -14 
Q 2675 -91 2278 -91 
Q 1328 -91 801 392 
Q 275 875 275 1747 
Q 275 2603 792 3093 
Q 1309 3584 2216 3584 
Q 3041 3584 3536 3087 
Q 4031 2591 4031 1759 
z
M 2881 2131 
Q 2881 2450 2695 2645 
Q 2509 2841 2209 2841 
Q 1884 2841 1681 2658 
Q 1478 2475 1428 2131 
L 2881 2131 
z
" transform="scale(0.015625)"/>
      <path id="DejaVuSans-Bold-4f" d="M 538 4863 
L 1656 4863 
L 1656 0 
L 538 0 
L 538 4863 
z
" transform="scale(0.015625)"/>
      <path id="DejaVuSans-Bold-53" d="M 1656 506 
L 1656 -1331 
L 538 -1331 
L 538 3500 
L 1656 3500 
L 1656 2988 
Q 1888 3294 2169 3439 
Q 2450 3584 2816 3584 
Q 3463 3584 3878 3070 
Q 4294 2556 4294 1747 
Q 4294 938 3878 423 
Q 3463 -91 2816 -91 
Q 2450 -91 2169 54 
Q 1888 200 1656 506 
z
M 2400 2772 
Q 2041 2772 1848 2508 
Q 1656 2244 1656 1747 
Q 1656 1250 1848 986 
Q 2041 722 2400 722 
Q 2759 722 2948 984 
Q 3138 1247 3138 1747 
Q 3138 2247 2948 2509 
Q 2759 2772 2400 2772 
z
" transform="scale(0.015625)"/>
      <path id="DejaVuSans-Bold-44" d="M 2106 1575 
Q 1756 1575 1579 1456 
Q 1403 1338 1403 1106 
Q 1403 894 1545 773 
Q 1688 653 1941 653 
Q 2256 653 2472 879 
Q 2688 1106 2688 1447 
L 2688 1575 
L 2106 1575 
z
M 3816 1997 
L 3816 0 
L 2688 0 
L 2688 519 
Q 2463 200 2181 54 
Q 1900 -91 1497 -91 
Q 953 -91 614 226 
Q 275 544 275 1050 
Q 275 1666 698 1953 
Q 1122 2241 2028 2241 
L 2688 2241 
L 2688 2328 
Q 2688 2594 2478 2717 
Q 2269 2841 1825 2841 
Q 1466 2841 1156 2769 
Q 847 2697 581 2553 
L 581 3406 
Q 941 3494 1303 3539 
Q 1666 3584 2028 3584 
Q 2975 3584 3395 3211 
Q 3816 2838 3816 1997 
z
" transform="scale(0.015625)"/>
      <path id="DejaVuSans-Bold-4c" d="M 538 3500 
L 1656 3500 
L 1656 0 
L 538 0 
L 538 3500 
z
M 538 4863 
L 1656 4863 
L 1656 3950 
L 538 3950 
L 538 4863 
z
" transform="scale(0.015625)"/>
      <path id="DejaVuSans-Bold-55" d="M 3138 2547 
Q 2991 2616 2845 2648 
Q 2700 2681 2553 2681 
Q 2122 2681 1889 2404 
Q 1656 2128 1656 1613 
L 1656 0 
L 538 0 
L 538 3500 
L 1656 3500 
L 1656 2925 
Q 1872 3269 2151 3426 
Q 2431 3584 2822 3584 
Q 2878 3584 2943 3579 
Q 3009 3575 3134 3559 
L 3138 2547 
z
" transform="scale(0.015625)"/>
     </defs>
     <use xlink:href="#DejaVuSans-Bold-36" transform="translate(0 0.015625)"/>
     <use xlink:href="#DejaVuSans-Bold-29" transform="translate(72.021484 0.015625)"/>
     <use xlink:href="#DejaVuSans-17" transform="translate(141.289062 -14.984326) scale(0.7)"/>
     <use xlink:href="#DejaVuSans-Bold-1d" transform="translate(188.55957 0.015625)"/>
     <use xlink:href="#DejaVuSans-Bold-3" transform="translate(228.549805 0.015625)"/>
     <use xlink:href="#DejaVuSans-Bold-52" transform="translate(263.364258 0.015625)"/>
     <use xlink:href="#DejaVuSans-Bold-51" transform="translate(332.06543 0.015625)"/>
     <use xlink:href="#DejaVuSans-Bold-48" transform="translate(403.256836 0.015625)"/>
     <use xlink:href="#DejaVuSans-Bold-3" transform="translate(471.079102 0.015625)"/>
     <use xlink:href="#DejaVuSans-Bold-4f" transform="translate(505.893555 0.015625)"/>
     <use xlink:href="#DejaVuSans-Bold-52" transform="translate(540.170898 0.015625)"/>
     <use xlink:href="#DejaVuSans-Bold-51" transform="translate(608.87207 0.015625)"/>
     <use xlink:href="#DejaVuSans-Bold-48" transform="translate(680.063477 0.015625)"/>
     <use xlink:href="#DejaVuSans-Bold-3" transform="translate(747.885742 0.015625)"/>
     <use xlink:href="#DejaVuSans-Bold-53" transform="translate(782.700195 0.015625)"/>
     <use xlink:href="#DejaVuSans-Bold-44" transform="translate(854.282227 0.015625)"/>
     <use xlink:href="#DejaVuSans-Bold-4c" transform="translate(921.762695 0.015625)"/>
     <use xlink:href="#DejaVuSans-Bold-55" transform="translate(956.040039 0.015625)"/>
    </g>
    <!-- $\to$ seesaw -->
    <g transform="translate(101.883283 40.460433) scale(0.105 -0.105)">
     <defs>
      <path id="DejaVuSans-c1c" d="M 5050 2147 
L 5050 1866 
L 3822 638 
L 3447 1013 
L 4175 1741 
L 366 1741 
L 366 2272 
L 4175 2272 
L 3447 3000 
L 3822 3375 
L 5050 2147 
z
" transform="scale(0.015625)"/>
      <path id="DejaVuSans-Bold-56" d="M 3272 3391 
L 3272 2541 
Q 2913 2691 2578 2766 
Q 2244 2841 1947 2841 
Q 1628 2841 1473 2761 
Q 1319 2681 1319 2516 
Q 1319 2381 1436 2309 
Q 1553 2238 1856 2203 
L 2053 2175 
Q 2913 2066 3209 1816 
Q 3506 1566 3506 1031 
Q 3506 472 3093 190 
Q 2681 -91 1863 -91 
Q 1516 -91 1145 -36 
Q 775 19 384 128 
L 384 978 
Q 719 816 1070 734 
Q 1422 653 1784 653 
Q 2113 653 2278 743 
Q 2444 834 2444 1013 
Q 2444 1163 2330 1236 
Q 2216 1309 1875 1350 
L 1678 1375 
Q 931 1469 631 1722 
Q 331 1975 331 2491 
Q 331 3047 712 3315 
Q 1094 3584 1881 3584 
Q 2191 3584 2531 3537 
Q 2872 3491 3272 3391 
z
" transform="scale(0.015625)"/>
      <path id="DejaVuSans-Bold-5a" d="M 225 3500 
L 1313 3500 
L 1900 1088 
L 2491 3500 
L 3425 3500 
L 4013 1113 
L 4603 3500 
L 5691 3500 
L 4769 0 
L 3547 0 
L 2956 2406 
L 2369 0 
L 1147 0 
L 225 3500 
z
" transform="scale(0.015625)"/>
     </defs>
     <use xlink:href="#DejaVuSans-c1c" transform="translate(19.482422 0)"/>
     <use xlink:href="#DejaVuSans-Bold-3" transform="translate(122.753906 0)"/>
     <use xlink:href="#DejaVuSans-Bold-56" transform="translate(157.568359 0)"/>
     <use xlink:href="#DejaVuSans-Bold-48" transform="translate(217.089844 0)"/>
     <use xlink:href="#DejaVuSans-Bold-48" transform="translate(284.912109 0)"/>
     <use xlink:href="#DejaVuSans-Bold-56" transform="translate(352.734375 0)"/>
     <use xlink:href="#DejaVuSans-Bold-44" transform="translate(412.255859 0)"/>
     <use xlink:href="#DejaVuSans-Bold-5a" transform="translate(479.736328 0)"/>
    </g>
   </g>
   <g id="patch_4">
    <path d="M 131.965783 183.239939 
C 135.533752 183.239939 138.956066 181.82237 141.479001 179.299435 
C 144.001936 176.7765 145.419505 173.354185 145.419505 169.786217 
C 145.419505 166.218248 144.001936 162.795934 141.479001 160.272999 
C 138.956066 157.750064 135.533752 156.332495 131.965783 156.332495 
C 128.397815 156.332495 124.9755 157.750064 122.452565 160.272999 
C 119.92963 162.795934 118.512061 166.218248 118.512061 169.786217 
C 118.512061 173.354185 119.92963 176.7765 122.452565 179.299435 
C 124.9755 181.82237 128.397815 183.239939 131.965783 183.239939 
z
" clip-path="url(#pc85f98f50a)" style="fill: #1769aa; stroke: #1769aa; stroke-linejoin: miter"/>
   </g>
   <g id="patch_5">
    <path d="M 210.445827 179.876508 
C 213.121804 179.876508 215.688539 178.813331 217.580741 176.92113 
C 219.472942 175.028929 220.536119 172.462193 220.536119 169.786217 
C 220.536119 167.11024 219.472942 164.543504 217.580741 162.651303 
C 215.688539 160.759102 213.121804 159.695925 210.445827 159.695925 
C 207.769851 159.695925 205.203115 160.759102 203.310914 162.651303 
C 201.418713 164.543504 200.355536 167.11024 200.355536 169.786217 
C 200.355536 172.462193 201.418713 175.028929 203.310914 176.92113 
C 205.203115 178.813331 207.769851 179.876508 210.445827 179.876508 
z
" clip-path="url(#pc85f98f50a)" style="fill: #2e7d5b; stroke: #2e7d5b; stroke-linejoin: miter"/>
   </g>
   <g id="patch_6">
    <path d="M 92.725761 112.607899 
C 95.401738 112.607899 97.968474 111.544722 99.860675 109.652521 
C 101.752876 107.76032 102.816053 105.193584 102.816053 102.517608 
C 102.816053 99.841631 101.752876 97.274895 99.860675 95.382694 
C 97.968474 93.490493 95.401738 92.427316 92.725761 92.427316 
C 90.049785 92.427316 87.483049 93.490493 85.590848 95.382694 
C 83.698647 97.274895 82.63547 99.841631 82.63547 102.517608 
C 82.63547 105.193584 83.698647 107.76032 85.590848 109.652521 
C 87.483049 111.544722 90.049785 112.607899 92.725761 112.607899 
z
" clip-path="url(#pc85f98f50a)" style="fill: #2e7d5b; stroke: #2e7d5b; stroke-linejoin: miter"/>
   </g>
   <g id="patch_7">
    <path d="M 92.725761 247.145117 
C 95.401738 247.145117 97.968474 246.08194 99.860675 244.189739 
C 101.752876 242.297538 102.816053 239.730802 102.816053 237.054826 
C 102.816053 234.378849 101.752876 231.812113 99.860675 229.919912 
C 97.968474 228.027711 95.401738 226.964534 92.725761 226.964534 
C 90.049785 226.964534 87.483049 228.027711 85.590848 229.919912 
C 83.698647 231.812113 82.63547 234.378849 82.63547 237.054826 
C 82.63547 239.730802 83.698647 242.297538 85.590848 244.189739 
C 87.483049 246.08194 90.049785 247.145117 92.725761 247.145117 
z
" clip-path="url(#pc85f98f50a)" style="fill: #2e7d5b; stroke: #2e7d5b; stroke-linejoin: miter"/>
   </g>
   <g id="patch_8">
    <path d="M 70.302892 140.636486 
C 72.978868 140.636486 75.545604 139.573309 77.437805 137.681108 
C 79.330006 135.788907 80.393183 133.222171 80.393183 130.546195 
C 80.393183 127.870218 79.330006 125.303482 77.437805 123.411281 
C 75.545604 121.51908 72.978868 120.455903 70.302892 120.455903 
C 67.626915 120.455903 65.060179 121.51908 63.167978 123.411281 
C 61.275777 125.303482 60.2126 127.870218 60.2126 130.546195 
C 60.2126 133.222171 61.275777 135.788907 63.167978 137.681108 
C 65.060179 139.573309 67.626915 140.636486 70.302892 140.636486 
z
" clip-path="url(#pc85f98f50a)" style="fill: #2e7d5b; stroke: #2e7d5b; stroke-linejoin: miter"/>
   </g>
  </g>
  <g id="axes_2">
   <g id="line2d_4">
    <path d="M 365.521783 169.786217 
L 416.677783 118.630217 
" clip-path="url(#p94da580e3d)" style="fill: none; stroke: #333333; stroke-width: 2; stroke-linecap: square"/>
   </g>
   <g id="line2d_5">
    <path d="M 365.521783 169.786217 
L 314.365783 118.630217 
" clip-path="url(#p94da580e3d)" style="fill: none; stroke: #333333; stroke-width: 2; stroke-linecap: square"/>
   </g>
   <g id="line2d_6">
    <path d="M 365.521783 169.786217 
L 416.677783 220.942217 
" clip-path="url(#p94da580e3d)" style="fill: none; stroke: #333333; stroke-width: 2; stroke-linecap: square"/>
   </g>
   <g id="line2d_7">
    <path d="M 365.521783 169.786217 
L 314.365783 220.942217 
" clip-path="url(#p94da580e3d)" style="fill: none; stroke: #333333; stroke-width: 2; stroke-linecap: square"/>
   </g>
   <g id="patch_9">
    <path d="M 365.521783 196.216817 
C 368.009017 196.216817 370.394715 193.431922 372.153455 188.475473 
C 373.912195 183.519024 374.900383 176.795694 374.900383 169.786217 
C 374.900383 162.77674 373.912195 156.053409 372.153455 151.09696 
C 370.394715 146.140511 368.009017 143.355617 365.521783 143.355617 
C 363.034549 143.355617 360.648852 146.140511 358.890112 151.09696 
C 357.131372 156.053409 356.143183 162.77674 356.143183 169.786217 
C 356.143183 176.795694 357.131372 183.519024 358.890112 188.475473 
C 360.648852 193.431922 363.034549 196.216817 365.521783 196.216817 
z
" clip-path="url(#p94da580e3d)" style="fill: #d97706; opacity: 0.45; stroke: #d97706; stroke-linejoin: miter"/>
   </g>
   <g id="patch_10">
    <path d="M 433.990005 139.902077 
Q 400.752578 141.992463 367.515151 144.082849 
" style="fill: none; stroke: #8a5a00; stroke-width: 0.7; stroke-linecap: round"/>
   </g>
   <g id="text_3">
    <!-- front lone pair -->
    <g style="fill: #8a5a00" transform="translate(437.992783 139.945217) scale(0.08 -0.08)">
     <defs>
      <path id="DejaVuSans-49" d="M 2375 4863 
L 2375 4384 
L 1825 4384 
Q 1516 4384 1395 4259 
Q 1275 4134 1275 3809 
L 1275 3500 
L 2222 3500 
L 2222 3053 
L 1275 3053 
L 1275 0 
L 697 0 
L 697 3053 
L 147 3053 
L 147 3500 
L 697 3500 
L 697 3744 
Q 697 4328 969 4595 
Q 1241 4863 1831 4863 
L 2375 4863 
z
" transform="scale(0.015625)"/>
     </defs>
     <use xlink:href="#DejaVuSans-49"/>
     <use xlink:href="#DejaVuSans-55" transform="translate(35.203125 0)"/>
     <use xlink:href="#DejaVuSans-52" transform="translate(74.109375 0)"/>
     <use xlink:href="#DejaVuSans-51" transform="translate(135.296875 0)"/>
     <use xlink:href="#DejaVuSans-57" transform="translate(198.671875 0)"/>
     <use xlink:href="#DejaVuSans-3" transform="translate(237.875 0)"/>
     <use xlink:href="#DejaVuSans-4f" transform="translate(269.65625 0)"/>
     <use xlink:href="#DejaVuSans-52" transform="translate(297.4375 0)"/>
     <use xlink:href="#DejaVuSans-51" transform="translate(358.625 0)"/>
     <use xlink:href="#DejaVuSans-48" transform="translate(422 0)"/>
     <use xlink:href="#DejaVuSans-3" transform="translate(483.53125 0)"/>
     <use xlink:href="#DejaVuSans-53" transform="translate(515.3125 0)"/>
     <use xlink:href="#DejaVuSans-44" transform="translate(578.796875 0)"/>
     <use xlink:href="#DejaVuSans-4c" transform="translate(640.078125 0)"/>
     <use xlink:href="#DejaVuSans-55" transform="translate(667.859375 0)"/>
    </g>
   </g>
   <g id="patch_11">
    <path d="M 433.990042 196.847769 
Q 400.756776 196.127679 367.52351 195.40759 
" style="fill: none; stroke: #8a5a00; stroke-width: 0.7; stroke-linecap: round"/>
   </g>
   <g id="text_4">
    <!-- back lone pair -->
    <g style="fill: #8a5a00" transform="translate(437.992783 199.627217) scale(0.08 -0.08)">
     <defs>
      <path id="DejaVuSans-45" d="M 3116 1747 
Q 3116 2381 2855 2742 
Q 2594 3103 2138 3103 
Q 1681 3103 1420 2742 
Q 1159 2381 1159 1747 
Q 1159 1113 1420 752 
Q 1681 391 2138 391 
Q 2594 391 2855 752 
Q 3116 1113 3116 1747 
z
M 1159 2969 
Q 1341 3281 1617 3432 
Q 1894 3584 2278 3584 
Q 2916 3584 3314 3078 
Q 3713 2572 3713 1747 
Q 3713 922 3314 415 
Q 2916 -91 2278 -91 
Q 1894 -91 1617 61 
Q 1341 213 1159 525 
L 1159 0 
L 581 0 
L 581 4863 
L 1159 4863 
L 1159 2969 
z
" transform="scale(0.015625)"/>
      <path id="DejaVuSans-46" d="M 3122 3366 
L 3122 2828 
Q 2878 2963 2633 3030 
Q 2388 3097 2138 3097 
Q 1578 3097 1268 2742 
Q 959 2388 959 1747 
Q 959 1106 1268 751 
Q 1578 397 2138 397 
Q 2388 397 2633 464 
Q 2878 531 3122 666 
L 3122 134 
Q 2881 22 2623 -34 
Q 2366 -91 2075 -91 
Q 1284 -91 818 406 
Q 353 903 353 1747 
Q 353 2603 823 3093 
Q 1294 3584 2113 3584 
Q 2378 3584 2631 3529 
Q 2884 3475 3122 3366 
z
" transform="scale(0.015625)"/>
      <path id="DejaVuSans-4e" d="M 581 4863 
L 1159 4863 
L 1159 1991 
L 2875 3500 
L 3609 3500 
L 1753 1863 
L 3688 0 
L 2938 0 
L 1159 1709 
L 1159 0 
L 581 0 
L 581 4863 
z
" transform="scale(0.015625)"/>
     </defs>
     <use xlink:href="#DejaVuSans-45"/>
     <use xlink:href="#DejaVuSans-44" transform="translate(63.484375 0)"/>
     <use xlink:href="#DejaVuSans-46" transform="translate(124.765625 0)"/>
     <use xlink:href="#DejaVuSans-4e" transform="translate(179.75 0)"/>
     <use xlink:href="#DejaVuSans-3" transform="translate(237.65625 0)"/>
     <use xlink:href="#DejaVuSans-4f" transform="translate(269.4375 0)"/>
     <use xlink:href="#DejaVuSans-52" transform="translate(297.21875 0)"/>
     <use xlink:href="#DejaVuSans-51" transform="translate(358.40625 0)"/>
     <use xlink:href="#DejaVuSans-48" transform="translate(421.78125 0)"/>
     <use xlink:href="#DejaVuSans-3" transform="translate(483.3125 0)"/>
     <use xlink:href="#DejaVuSans-53" transform="translate(515.09375 0)"/>
     <use xlink:href="#DejaVuSans-44" transform="translate(578.578125 0)"/>
     <use xlink:href="#DejaVuSans-4c" transform="translate(639.859375 0)"/>
     <use xlink:href="#DejaVuSans-55" transform="translate(667.640625 0)"/>
    </g>
   </g>
   <g id="text_5">
    <!-- XeF$_4$: two lone pairs -->
    <g transform="translate(339.985783 57.395705) scale(0.105 -0.105)">
     <defs>
      <path id="DejaVuSans-Bold-3b" d="M 3188 2381 
L 4806 0 
L 3553 0 
L 2463 1594 
L 1381 0 
L 122 0 
L 1741 2381 
L 184 4666 
L 1441 4666 
L 2463 3163 
L 3481 4666 
L 4744 4666 
L 3188 2381 
z
" transform="scale(0.015625)"/>
      <path id="DejaVuSans-Bold-57" d="M 1759 4494 
L 1759 3500 
L 2913 3500 
L 2913 2700 
L 1759 2700 
L 1759 1216 
Q 1759 972 1856 886 
Q 1953 800 2241 800 
L 2816 800 
L 2816 0 
L 1856 0 
Q 1194 0 917 276 
Q 641 553 641 1216 
L 641 2700 
L 84 2700 
L 84 3500 
L 641 3500 
L 641 4494 
L 1759 4494 
z
" transform="scale(0.015625)"/>
     </defs>
     <use xlink:href="#DejaVuSans-Bold-3b" transform="translate(0 0.015625)"/>
     <use xlink:href="#DejaVuSans-Bold-48" transform="translate(74.099609 0.015625)"/>
     <use xlink:href="#DejaVuSans-Bold-29" transform="translate(141.921875 0.015625)"/>
     <use xlink:href="#DejaVuSans-17" transform="translate(211.189453 -14.984326) scale(0.7)"/>
     <use xlink:href="#DejaVuSans-Bold-1d" transform="translate(258.459961 0.015625)"/>
     <use xlink:href="#DejaVuSans-Bold-3" transform="translate(298.450195 0.015625)"/>
     <use xlink:href="#DejaVuSans-Bold-57" transform="translate(333.264648 0.015625)"/>
     <use xlink:href="#DejaVuSans-Bold-5a" transform="translate(381.067383 0.015625)"/>
     <use xlink:href="#DejaVuSans-Bold-52" transform="translate(473.450195 0.015625)"/>
     <use xlink:href="#DejaVuSans-Bold-3" transform="translate(542.151367 0.015625)"/>
     <use xlink:href="#DejaVuSans-Bold-4f" transform="translate(576.96582 0.015625)"/>
     <use xlink:href="#DejaVuSans-Bold-52" transform="translate(611.243164 0.015625)"/>
     <use xlink:href="#DejaVuSans-Bold-51" transform="translate(679.944336 0.015625)"/>
     <use xlink:href="#DejaVuSans-Bold-48" transform="translate(751.135742 0.015625)"/>
     <use xlink:href="#DejaVuSans-Bold-3" transform="translate(818.958008 0.015625)"/>
     <use xlink:href="#DejaVuSans-Bold-53" transform="translate(853.772461 0.015625)"/>
     <use xlink:href="#DejaVuSans-Bold-44" transform="translate(925.354492 0.015625)"/>
     <use xlink:href="#DejaVuSans-Bold-4c" transform="translate(992.834961 0.015625)"/>
     <use xlink:href="#DejaVuSans-Bold-55" transform="translate(1027.112305 0.015625)"/>
     <use xlink:href="#DejaVuSans-Bold-56" transform="translate(1076.428711 0.015625)"/>
    </g>
    <!-- $\to$ square planar -->
    <g transform="translate(350.223283 70.000217) scale(0.105 -0.105)">
     <defs>
      <path id="DejaVuSans-Bold-54" d="M 2181 2772 
Q 1825 2772 1636 2509 
Q 1447 2247 1447 1747 
Q 1447 1247 1636 984 
Q 1825 722 2181 722 
Q 2541 722 2730 984 
Q 2919 1247 2919 1747 
Q 2919 2247 2730 2509 
Q 2541 2772 2181 2772 
z
M 2919 506 
Q 2688 197 2409 53 
Q 2131 -91 1766 -91 
Q 1119 -91 703 423 
Q 288 938 288 1747 
Q 288 2556 703 3067 
Q 1119 3578 1766 3578 
Q 2131 3578 2409 3434 
Q 2688 3291 2919 2981 
L 2919 3500 
L 4044 3500 
L 4044 -1331 
L 2919 -1331 
L 2919 506 
z
" transform="scale(0.015625)"/>
      <path id="DejaVuSans-Bold-58" d="M 500 1363 
L 500 3500 
L 1625 3500 
L 1625 3150 
Q 1625 2866 1622 2436 
Q 1619 2006 1619 1863 
Q 1619 1441 1641 1255 
Q 1663 1069 1716 984 
Q 1784 875 1895 815 
Q 2006 756 2150 756 
Q 2500 756 2700 1025 
Q 2900 1294 2900 1772 
L 2900 3500 
L 4019 3500 
L 4019 0 
L 2900 0 
L 2900 506 
Q 2647 200 2364 54 
Q 2081 -91 1741 -91 
Q 1134 -91 817 281 
Q 500 653 500 1363 
z
" transform="scale(0.015625)"/>
     </defs>
     <use xlink:href="#DejaVuSans-c1c" transform="translate(19.482422 0.015625)"/>
     <use xlink:href="#DejaVuSans-Bold-3" transform="translate(122.753906 0.015625)"/>
     <use xlink:href="#DejaVuSans-Bold-56" transform="translate(157.568359 0.015625)"/>
     <use xlink:href="#DejaVuSans-Bold-54" transform="translate(217.089844 0.015625)"/>
     <use xlink:href="#DejaVuSans-Bold-58" transform="translate(288.671875 0.015625)"/>
     <use xlink:href="#DejaVuSans-Bold-44" transform="translate(359.863281 0.015625)"/>
     <use xlink:href="#DejaVuSans-Bold-55" transform="translate(427.34375 0.015625)"/>
     <use xlink:href="#DejaVuSans-Bold-48" transform="translate(476.660156 0.015625)"/>
     <use xlink:href="#DejaVuSans-Bold-3" transform="translate(544.482422 0.015625)"/>
     <use xlink:href="#DejaVuSans-Bold-53" transform="translate(579.296875 0.015625)"/>
     <use xlink:href="#DejaVuSans-Bold-4f" transform="translate(650.878906 0.015625)"/>
     <use xlink:href="#DejaVuSans-Bold-44" transform="translate(685.15625 0.015625)"/>
     <use xlink:href="#DejaVuSans-Bold-51" transform="translate(752.636719 0.015625)"/>
     <use xlink:href="#DejaVuSans-Bold-44" transform="translate(823.828125 0.015625)"/>
     <use xlink:href="#DejaVuSans-Bold-55" transform="translate(891.308594 0.015625)"/>
    </g>
   </g>
   <g id="patch_12">
    <path d="M 416.677783 126.303617 
C 418.712793 126.303617 420.664727 125.495099 422.103696 124.05613 
C 423.542665 122.617161 424.351183 120.665226 424.351183 118.630217 
C 424.351183 116.595207 423.542665 114.643273 422.103696 113.204304 
C 420.664727 111.765335 418.712793 110.956817 416.677783 110.956817 
C 414.642774 110.956817 412.690839 111.765335 411.25187 113.204304 
C 409.812901 114.643273 409.004383 116.595207 409.004383 118.630217 
C 409.004383 120.665226 409.812901 122.617161 411.25187 124.05613 
C 412.690839 125.495099 414.642774 126.303617 416.677783 126.303617 
z
" clip-path="url(#p94da580e3d)" style="fill: #2e7d5b; stroke: #2e7d5b; stroke-linejoin: miter"/>
   </g>
   <g id="patch_13">
    <path d="M 314.365783 126.303617 
C 316.400793 126.303617 318.352727 125.495099 319.791696 124.05613 
C 321.230665 122.617161 322.039183 120.665226 322.039183 118.630217 
C 322.039183 116.595207 321.230665 114.643273 319.791696 113.204304 
C 318.352727 111.765335 316.400793 110.956817 314.365783 110.956817 
C 312.330774 110.956817 310.378839 111.765335 308.93987 113.204304 
C 307.500901 114.643273 306.692383 116.595207 306.692383 118.630217 
C 306.692383 120.665226 307.500901 122.617161 308.93987 124.05613 
C 310.378839 125.495099 312.330774 126.303617 314.365783 126.303617 
z
" clip-path="url(#p94da580e3d)" style="fill: #2e7d5b; stroke: #2e7d5b; stroke-linejoin: miter"/>
   </g>
   <g id="patch_14">
    <path d="M 416.677783 228.615617 
C 418.712793 228.615617 420.664727 227.807099 422.103696 226.36813 
C 423.542665 224.929161 424.351183 222.977226 424.351183 220.942217 
C 424.351183 218.907207 423.542665 216.955273 422.103696 215.516304 
C 420.664727 214.077335 418.712793 213.268817 416.677783 213.268817 
C 414.642774 213.268817 412.690839 214.077335 411.25187 215.516304 
C 409.812901 216.955273 409.004383 218.907207 409.004383 220.942217 
C 409.004383 222.977226 409.812901 224.929161 411.25187 226.36813 
C 412.690839 227.807099 414.642774 228.615617 416.677783 228.615617 
z
" clip-path="url(#p94da580e3d)" style="fill: #2e7d5b; stroke: #2e7d5b; stroke-linejoin: miter"/>
   </g>
   <g id="patch_15">
    <path d="M 314.365783 228.615617 
C 316.400793 228.615617 318.352727 227.807099 319.791696 226.36813 
C 321.230665 224.929161 322.039183 222.977226 322.039183 220.942217 
C 322.039183 218.907207 321.230665 216.955273 319.791696 215.516304 
C 318.352727 214.077335 316.400793 213.268817 314.365783 213.268817 
C 312.330774 213.268817 310.378839 214.077335 308.93987 215.516304 
C 307.500901 216.955273 306.692383 218.907207 306.692383 220.942217 
C 306.692383 222.977226 307.500901 224.929161 308.93987 226.36813 
C 310.378839 227.807099 312.330774 228.615617 314.365783 228.615617 
z
" clip-path="url(#p94da580e3d)" style="fill: #2e7d5b; stroke: #2e7d5b; stroke-linejoin: miter"/>
   </g>
   <g id="patch_16">
    <path d="M 365.521783 180.017417 
C 368.235129 180.017417 370.837709 178.939393 372.756334 177.020768 
C 374.67496 175.102142 375.752983 172.499563 375.752983 169.786217 
C 375.752983 167.072871 374.67496 164.470291 372.756334 162.551666 
C 370.837709 160.63304 368.235129 159.555017 365.521783 159.555017 
C 362.808437 159.555017 360.205858 160.63304 358.287232 162.551666 
C 356.368607 164.470291 355.290583 167.072871 355.290583 169.786217 
C 355.290583 172.499563 356.368607 175.102142 358.287232 177.020768 
C 360.205858 178.939393 362.808437 180.017417 365.521783 180.017417 
z
" clip-path="url(#p94da580e3d)" style="fill: #1769aa; stroke: #1769aa; stroke-linejoin: miter"/>
   </g>
  </g>
  <g id="text_6">
   <!-- Where the lone pairs go determines whether four bonds look bent or flat -->
   <g transform="translate(28.687346 17.378203) scale(0.115 -0.115)">
    <defs>
     <path id="DejaVuSans-Bold-3a" d="M 191 4666 
L 1344 4666 
L 2150 1275 
L 2950 4666 
L 4109 4666 
L 4909 1275 
L 5716 4666 
L 6859 4666 
L 5759 0 
L 4372 0 
L 3525 3547 
L 2688 0 
L 1300 0 
L 191 4666 
z
" transform="scale(0.015625)"/>
     <path id="DejaVuSans-Bold-4b" d="M 4056 2131 
L 4056 0 
L 2931 0 
L 2931 347 
L 2931 1625 
Q 2931 2084 2911 2256 
Q 2891 2428 2841 2509 
Q 2775 2619 2662 2680 
Q 2550 2741 2406 2741 
Q 2056 2741 1856 2470 
Q 1656 2200 1656 1722 
L 1656 0 
L 538 0 
L 538 4863 
L 1656 4863 
L 1656 2988 
Q 1909 3294 2193 3439 
Q 2478 3584 2822 3584 
Q 3428 3584 3742 3212 
Q 4056 2841 4056 2131 
z
" transform="scale(0.015625)"/>
     <path id="DejaVuSans-Bold-4a" d="M 2919 594 
Q 2688 288 2409 144 
Q 2131 0 1766 0 
Q 1125 0 706 504 
Q 288 1009 288 1791 
Q 288 2575 706 3076 
Q 1125 3578 1766 3578 
Q 2131 3578 2409 3434 
Q 2688 3291 2919 2981 
L 2919 3500 
L 4044 3500 
L 4044 353 
Q 4044 -491 3511 -936 
Q 2978 -1381 1966 -1381 
Q 1638 -1381 1331 -1331 
Q 1025 -1281 716 -1178 
L 716 -306 
Q 1009 -475 1290 -558 
Q 1572 -641 1856 -641 
Q 2406 -641 2662 -400 
Q 2919 -159 2919 353 
L 2919 594 
z
M 2181 2772 
Q 1834 2772 1640 2515 
Q 1447 2259 1447 1791 
Q 1447 1309 1634 1061 
Q 1822 813 2181 813 
Q 2531 813 2725 1069 
Q 2919 1325 2919 1791 
Q 2919 2259 2725 2515 
Q 2531 2772 2181 2772 
z
" transform="scale(0.015625)"/>
     <path id="DejaVuSans-Bold-47" d="M 2919 2988 
L 2919 4863 
L 4044 4863 
L 4044 0 
L 2919 0 
L 2919 506 
Q 2688 197 2409 53 
Q 2131 -91 1766 -91 
Q 1119 -91 703 423 
Q 288 938 288 1747 
Q 288 2556 703 3070 
Q 1119 3584 1766 3584 
Q 2128 3584 2408 3439 
Q 2688 3294 2919 2988 
z
M 2181 722 
Q 2541 722 2730 984 
Q 2919 1247 2919 1747 
Q 2919 2247 2730 2509 
Q 2541 2772 2181 2772 
Q 1825 2772 1636 2509 
Q 1447 2247 1447 1747 
Q 1447 1247 1636 984 
Q 1825 722 2181 722 
z
" transform="scale(0.015625)"/>
     <path id="DejaVuSans-Bold-50" d="M 3781 2919 
Q 3994 3244 4286 3414 
Q 4578 3584 4928 3584 
Q 5531 3584 5847 3212 
Q 6163 2841 6163 2131 
L 6163 0 
L 5038 0 
L 5038 1825 
Q 5041 1866 5042 1909 
Q 5044 1953 5044 2034 
Q 5044 2406 4934 2573 
Q 4825 2741 4581 2741 
Q 4263 2741 4089 2478 
Q 3916 2216 3909 1719 
L 3909 0 
L 2784 0 
L 2784 1825 
Q 2784 2406 2684 2573 
Q 2584 2741 2328 2741 
Q 2006 2741 1831 2477 
Q 1656 2213 1656 1722 
L 1656 0 
L 531 0 
L 531 3500 
L 1656 3500 
L 1656 2988 
Q 1863 3284 2130 3434 
Q 2397 3584 2719 3584 
Q 3081 3584 3359 3409 
Q 3638 3234 3781 2919 
z
" transform="scale(0.015625)"/>
     <path id="DejaVuSans-Bold-49" d="M 2841 4863 
L 2841 4128 
L 2222 4128 
Q 1984 4128 1890 4042 
Q 1797 3956 1797 3744 
L 1797 3500 
L 2753 3500 
L 2753 2700 
L 1797 2700 
L 1797 0 
L 678 0 
L 678 2700 
L 122 2700 
L 122 3500 
L 678 3500 
L 678 3744 
Q 678 4316 997 4589 
Q 1316 4863 1984 4863 
L 2841 4863 
z
" transform="scale(0.015625)"/>
     <path id="DejaVuSans-Bold-45" d="M 2400 722 
Q 2759 722 2948 984 
Q 3138 1247 3138 1747 
Q 3138 2247 2948 2509 
Q 2759 2772 2400 2772 
Q 2041 2772 1848 2508 
Q 1656 2244 1656 1747 
Q 1656 1250 1848 986 
Q 2041 722 2400 722 
z
M 1656 2988 
Q 1888 3294 2169 3439 
Q 2450 3584 2816 3584 
Q 3463 3584 3878 3070 
Q 4294 2556 4294 1747 
Q 4294 938 3878 423 
Q 3463 -91 2816 -91 
Q 2450 -91 2169 54 
Q 1888 200 1656 506 
L 1656 0 
L 538 0 
L 538 4863 
L 1656 4863 
L 1656 2988 
z
" transform="scale(0.015625)"/>
     <path id="DejaVuSans-Bold-4e" d="M 538 4863 
L 1656 4863 
L 1656 2216 
L 2944 3500 
L 4244 3500 
L 2534 1894 
L 4378 0 
L 3022 0 
L 1656 1459 
L 1656 0 
L 538 0 
L 538 4863 
z
" transform="scale(0.015625)"/>
     <path id="DejaVuSans-Bold-13ac" d="M 1984 4863 
L 4206 4863 
L 4206 0 
L 3078 0 
L 3078 4128 
L 2222 4128 
Q 1984 4128 1890 4042 
Q 1797 3956 1797 3744 
L 1797 3500 
L 2675 3500 
L 2675 2700 
L 1797 2700 
L 1797 0 
L 678 0 
L 678 2700 
L 122 2700 
L 122 3500 
L 678 3500 
L 678 3744 
Q 678 4316 997 4589 
Q 1316 4863 1984 4863 
z
" transform="scale(0.015625)"/>
    </defs>
    <use xlink:href="#DejaVuSans-Bold-3a"/>
    <use xlink:href="#DejaVuSans-Bold-4b" transform="translate(110.296875 0)"/>
    <use xlink:href="#DejaVuSans-Bold-48" transform="translate(181.484375 0)"/>
    <use xlink:href="#DejaVuSans-Bold-55" transform="translate(249.3125 0)"/>
    <use xlink:href="#DejaVuSans-Bold-48" transform="translate(298.625 0)"/>
    <use xlink:href="#DejaVuSans-Bold-3" transform="translate(366.453125 0)"/>
    <use xlink:href="#DejaVuSans-Bold-57" transform="translate(401.265625 0)"/>
    <use xlink:href="#DejaVuSans-Bold-4b" transform="translate(449.0625 0)"/>
    <use xlink:href="#DejaVuSans-Bold-48" transform="translate(520.25 0)"/>
    <use xlink:href="#DejaVuSans-Bold-3" transform="translate(588.078125 0)"/>
    <use xlink:href="#DejaVuSans-Bold-4f" transform="translate(622.890625 0)"/>
    <use xlink:href="#DejaVuSans-Bold-52" transform="translate(657.171875 0)"/>
    <use xlink:href="#DejaVuSans-Bold-51" transform="translate(725.875 0)"/>
    <use xlink:href="#DejaVuSans-Bold-48" transform="translate(797.0625 0)"/>
    <use xlink:href="#DejaVuSans-Bold-3" transform="translate(864.890625 0)"/>
    <use xlink:href="#DejaVuSans-Bold-53" transform="translate(899.703125 0)"/>
    <use xlink:href="#DejaVuSans-Bold-44" transform="translate(971.28125 0)"/>
    <use xlink:href="#DejaVuSans-Bold-4c" transform="translate(1038.765625 0)"/>
    <use xlink:href="#DejaVuSans-Bold-55" transform="translate(1073.046875 0)"/>
    <use xlink:href="#DejaVuSans-Bold-56" transform="translate(1122.359375 0)"/>
    <use xlink:href="#DejaVuSans-Bold-3" transform="translate(1181.875 0)"/>
    <use xlink:href="#DejaVuSans-Bold-4a" transform="translate(1216.6875 0)"/>
    <use xlink:href="#DejaVuSans-Bold-52" transform="translate(1288.265625 0)"/>
    <use xlink:href="#DejaVuSans-Bold-3" transform="translate(1356.96875 0)"/>
    <use xlink:href="#DejaVuSans-Bold-47" transform="translate(1391.78125 0)"/>
    <use xlink:href="#DejaVuSans-Bold-48" transform="translate(1463.359375 0)"/>
    <use xlink:href="#DejaVuSans-Bold-57" transform="translate(1531.1875 0)"/>
    <use xlink:href="#DejaVuSans-Bold-48" transform="translate(1578.984375 0)"/>
    <use xlink:href="#DejaVuSans-Bold-55" transform="translate(1646.8125 0)"/>
    <use xlink:href="#DejaVuSans-Bold-50" transform="translate(1696.125 0)"/>
    <use xlink:href="#DejaVuSans-Bold-4c" transform="translate(1800.328125 0)"/>
    <use xlink:href="#DejaVuSans-Bold-51" transform="translate(1834.609375 0)"/>
    <use xlink:href="#DejaVuSans-Bold-48" transform="translate(1905.796875 0)"/>
    <use xlink:href="#DejaVuSans-Bold-56" transform="translate(1973.625 0)"/>
    <use xlink:href="#DejaVuSans-Bold-3" transform="translate(2033.140625 0)"/>
    <use xlink:href="#DejaVuSans-Bold-5a" transform="translate(2067.953125 0)"/>
    <use xlink:href="#DejaVuSans-Bold-4b" transform="translate(2160.34375 0)"/>
    <use xlink:href="#DejaVuSans-Bold-48" transform="translate(2231.53125 0)"/>
    <use xlink:href="#DejaVuSans-Bold-57" transform="translate(2299.359375 0)"/>
    <use xlink:href="#DejaVuSans-Bold-4b" transform="translate(2347.15625 0)"/>
    <use xlink:href="#DejaVuSans-Bold-48" transform="translate(2418.34375 0)"/>
    <use xlink:href="#DejaVuSans-Bold-55" transform="translate(2486.171875 0)"/>
    <use xlink:href="#DejaVuSans-Bold-3" transform="translate(2535.484375 0)"/>
    <use xlink:href="#DejaVuSans-Bold-49" transform="translate(2570.296875 0)"/>
    <use xlink:href="#DejaVuSans-Bold-52" transform="translate(2613.796875 0)"/>
    <use xlink:href="#DejaVuSans-Bold-58" transform="translate(2682.5 0)"/>
    <use xlink:href="#DejaVuSans-Bold-55" transform="translate(2753.6875 0)"/>
    <use xlink:href="#DejaVuSans-Bold-3" transform="translate(2803 0)"/>
    <use xlink:href="#DejaVuSans-Bold-45" transform="translate(2837.8125 0)"/>
    <use xlink:href="#DejaVuSans-Bold-52" transform="translate(2909.390625 0)"/>
    <use xlink:href="#DejaVuSans-Bold-51" transform="translate(2978.09375 0)"/>
    <use xlink:href="#DejaVuSans-Bold-47" transform="translate(3049.28125 0)"/>
    <use xlink:href="#DejaVuSans-Bold-56" transform="translate(3120.859375 0)"/>
    <use xlink:href="#DejaVuSans-Bold-3" transform="translate(3180.375 0)"/>
    <use xlink:href="#DejaVuSans-Bold-4f" transform="translate(3215.1875 0)"/>
    <use xlink:href="#DejaVuSans-Bold-52" transform="translate(3249.46875 0)"/>
    <use xlink:href="#DejaVuSans-Bold-52" transform="translate(3318.171875 0)"/>
    <use xlink:href="#DejaVuSans-Bold-4e" transform="translate(3386.875 0)"/>
    <use xlink:href="#DejaVuSans-Bold-3" transform="translate(3453.375 0)"/>
    <use xlink:href="#DejaVuSans-Bold-45" transform="translate(3488.1875 0)"/>
    <use xlink:href="#DejaVuSans-Bold-48" transform="translate(3559.765625 0)"/>
    <use xlink:href="#DejaVuSans-Bold-51" transform="translate(3627.59375 0)"/>
    <use xlink:href="#DejaVuSans-Bold-57" transform="translate(3698.78125 0)"/>
    <use xlink:href="#DejaVuSans-Bold-3" transform="translate(3746.578125 0)"/>
    <use xlink:href="#DejaVuSans-Bold-52" transform="translate(3781.390625 0)"/>
    <use xlink:href="#DejaVuSans-Bold-55" transform="translate(3850.09375 0)"/>
    <use xlink:href="#DejaVuSans-Bold-3" transform="translate(3899.40625 0)"/>
    <use xlink:href="#DejaVuSans-Bold-13ac" transform="translate(3934.21875 0)"/>
    <use xlink:href="#DejaVuSans-Bold-44" transform="translate(4008.34375 0)"/>
    <use xlink:href="#DejaVuSans-Bold-57" transform="translate(4075.828125 0)"/>
   </g>
  </g>
 </g>
 <defs>
  <clipPath id="pc85f98f50a">
   <rect x="8.64" y="46.460433" width="246.651567" height="246.651567"/>
  </clipPath>
  <clipPath id="p94da580e3d">
   <rect x="271.735783" y="76.000217" width="255.78" height="187.572"/>
  </clipPath>
 </defs>
</svg>
